#N canvas 827 239 527 327 12;
#X obj 132 201 noise~;
#X obj 116 324 *~;
#X obj 132 252 hv.filters/bandpass2;
#X obj 73 285 *~;
#X obj 237 118 * 8000;
#X obj 237 147 + 100;
#X obj 50 47 inlet~ ramp_value;
#X obj 174 47 inlet ramp_value;
#X obj 81 404 outlet~ l;
#X obj 149 404 outlet~ r;
#X obj 438 47 inlet q;
#X obj 311 47 inlet max_freq;
#X obj 510 47 loadbang;
#X obj 510 76 f \$1;
#X obj 552 76 f \$2;
#X connect 0 0 2 0;
#X connect 1 0 8 0;
#X connect 1 0 9 0;
#X connect 2 0 1 1;
#X connect 3 0 1 0;
#X connect 4 0 5 0;
#X connect 5 0 2 1;
#X connect 6 0 3 0;
#X connect 6 0 3 1;
#X connect 7 0 4 0;
#X connect 10 0 2 2;
#X connect 11 0 4 1;
#X connect 12 0 13 0;
#X connect 12 0 14 0;
#X connect 13 0 4 1;
#X connect 14 0 2 2;
