#N canvas 5 61 572 420 12;
#X obj 90 221 cos~;
#X obj 91 195 +~ 0.5;
#X obj 91 170 *~ 0.25;
#X obj 72 124 hip~;
#X obj 271 84 f \$1;
#X obj 297 45 loadbang;
#X obj 285 12 inlet;
#X obj 10 176 -~;
#X obj 369 12 inlet;
#X obj 369 83 f \$2;
#X obj 90 270 -~;
#X obj 90 295 *~;
#X obj 73 321 +~;
#X obj 48 356 +~;
#X text 430 24 Simple HF exciter;
#X text 430 47 Inlets: Signal \, Crossover Frequency \, Amount;
#X text 431 68 Arguments: Crossover Frequency \, Amount;
#X text 430 110 https://forum.pdpatchrepo.info/topic/13544/sigmoid-functions/3;
#X obj 8 11 inlet~ signal_l;
#X obj 108 11 inlet~ signal_l;
#X obj 243 221 cos~;
#X obj 244 195 +~ 0.5;
#X obj 244 170 *~ 0.25;
#X obj 225 124 hip~;
#X obj 163 176 -~;
#X obj 243 270 -~;
#X obj 243 295 *~;
#X obj 226 321 +~;
#X obj 201 356 +~;
#X obj 48 381 outlet~ left;
#X obj 201 381 outlet~ rigth;
#X connect 0 0 10 0;
#X connect 1 0 0 0;
#X connect 2 0 1 0;
#X connect 3 0 7 1;
#X connect 3 0 2 0;
#X connect 3 0 10 1;
#X connect 3 0 12 0;
#X connect 4 0 3 1;
#X connect 4 0 23 1;
#X connect 5 0 4 0;
#X connect 5 0 9 0;
#X connect 6 0 4 0;
#X connect 7 0 13 0;
#X connect 8 0 9 0;
#X connect 9 0 11 1;
#X connect 9 0 26 1;
#X connect 10 0 11 0;
#X connect 11 0 12 1;
#X connect 12 0 13 1;
#X connect 13 0 29 0;
#X connect 18 0 3 0;
#X connect 18 0 7 0;
#X connect 19 0 23 0;
#X connect 19 0 24 0;
#X connect 20 0 25 0;
#X connect 21 0 20 0;
#X connect 22 0 21 0;
#X connect 23 0 24 1;
#X connect 23 0 22 0;
#X connect 23 0 25 1;
#X connect 23 0 27 0;
#X connect 24 0 28 0;
#X connect 25 0 26 0;
#X connect 26 0 27 1;
#X connect 27 0 28 1;
#X connect 28 0 30 0;
