#N canvas 827 239 527 327 12;
#X obj 65 71 inlet~ audio_l;
#X obj 163 71 inlet~ audio_r;
#X obj 263 71 inlet~ timemod~;
#X obj 379 71 inlet timemod;
#X obj 65 900 outlet~ audio_l;
#X obj 171 900 outlet~ audio_r;
#X obj 379 100 s \$0-timemod;
#X obj 890 68 tgl 25 0 empty empty empty 17 7 0 10 #e4e4e4 #4d4d4d #373737 0 1;
#X obj 922 68 tgl 25 0 empty empty empty 17 7 0 10 #e4e4e4 #4d4d4d #373737 0 1;
#X obj 954 68 tgl 25 0 empty empty empty 17 7 0 10 #e4e4e4 #4d4d4d #373737 0 1;
#X obj 986 68 tgl 25 0 empty empty empty 17 7 0 10 #e4e4e4 #4d4d4d #373737 0 1;
#X obj 705 309 f 0;
#X obj 747 309 f 0;
#X obj 789 309 f 0;
#X obj 831 309 f 0;
#X obj 747 344 t b f;
#X obj 705 344 + 0;
#X obj 747 383 t b f;
#X obj 705 383 + 0;
#X obj 747 422 t b f;
#X obj 705 422 + 0;
#X obj 705 458 swap 1;
#X obj 705 496 /;
#X text 886 38 debugging amount;
#X obj 705 533 s \$0-modsum-factor;
#X obj 561 130 r fx_bp_mod @hv_param 0 1 0;
#X obj 561 159 r fx_notch_mod @hv_param 0 1 0;
#X msg 785 71 lp_mod \$1;
#X msg 785 100 hp_mod \$1;
#X msg 785 130 bp_mod \$1;
#X msg 785 159 notch_mod \$1;
#X obj 705 280 route hp_mod lp_mod bp_mod notch_mod;
#X obj 902 159 s \$0-mod-amount;
#X obj 705 221 r \$0-mod-amount;
#X obj 961 602 print factor;
#X obj 390 796 vsl 17 128 0 127 0 0 empty empty empty 0 -9 0 10 #e4e4e4 #4d4d4d #373737 0 1;
#X obj 419 796 vsl 17 128 0 127 0 0 empty empty empty 0 -9 0 10 #e4e4e4 #4d4d4d #373737 0 1;
#X obj 750 756 snapshot~;
#X obj 750 693 rmstodb~;
#X obj 1063 693 bng 25 250 50 0 empty empty empty 17 7 0 10 #e4e4e4 #4d4d4d #373737;
#X obj 892 758 snapshot~;
#X obj 892 695 rmstodb~;
#X obj 1083 726 metro 20;
#X msg 1109 693 stop;
#X obj 759 728 r \$0-metro;
#X obj 901 730 r \$0-metro;
#X obj 1083 752 s \$0-metro;
#X obj 561 71 r fx_phaser_mod @hv_param 0 1 0;
#X obj 561 100 r fx_flanger_mod @hv_param 0 1 0;
#X obj 397 187 s~ \$0-peak_orig;
#X obj 397 302 s~ \$0-peak_fx;
#X obj 747 662 r~ \$0-peak_orig;
#X obj 892 662 r~ \$0-peak_fx;
#X connect 0 0 49 0;
#X connect 3 0 6 0;
#X connect 7 0 27 0;
#X connect 8 0 28 0;
#X connect 9 0 29 0;
#X connect 10 0 30 0;
#X connect 11 0 16 0;
#X connect 12 0 15 0;
#X connect 13 0 17 0;
#X connect 14 0 19 0;
#X connect 15 0 16 0;
#X connect 15 1 16 1;
#X connect 16 0 18 0;
#X connect 17 0 18 0;
#X connect 17 1 18 1;
#X connect 18 0 20 0;
#X connect 19 0 20 0;
#X connect 19 1 20 1;
#X connect 20 0 21 0;
#X connect 21 0 22 0;
#X connect 21 1 22 1;
#X connect 22 0 24 0;
#X connect 22 0 34 0;
#X connect 25 0 29 0;
#X connect 26 0 30 0;
#X connect 27 0 32 0;
#X connect 28 0 32 0;
#X connect 29 0 32 0;
#X connect 30 0 32 0;
#X connect 31 0 11 0;
#X connect 31 1 12 0;
#X connect 31 2 13 0;
#X connect 31 3 14 0;
#X connect 33 0 31 0;
#X connect 37 0 35 0;
#X connect 38 0 37 0;
#X connect 39 0 42 0;
#X connect 40 0 36 0;
#X connect 41 0 40 0;
#X connect 42 0 46 0;
#X connect 43 0 42 0;
#X connect 44 0 37 0;
#X connect 45 0 40 0;
#X connect 47 0 27 0;
#X connect 48 0 28 0;
#X connect 51 0 38 0;
#X connect 52 0 41 0;
