#N canvas 5 61 725 623 12;
#X obj 12 27 inlet~;
#X obj 877 42 inlet;
#X obj 750 40 inlet;
#X obj 831 460 t b f;
#X obj 831 513 *;
#X obj 832 322 * 0.5;
#X obj 831 399 pow -1;
#X obj 880 623 s \$0-pow2;
#X obj 11 294 *~;
#X obj 12 377 /~;
#X obj 185 259 *~ -1;
#X obj 185 284 +~ 1;
#X obj 166 360 *~;
#X obj 137 326 -~;
#X obj 206 334 * -1;
#X obj 206 359 + 1;
#X obj 166 385 /~;
#X floatatom 55 353 5 0 0 0 - - - 0;
#X obj 55 328 + 1;
#X obj 12 402 pow~;
#X obj 11 430 -~;
#X obj 166 413 *~ -1;
#X obj 166 438 +~ 1;
#X obj 166 490 *~ -1;
#X obj 166 515 +~ 1;
#X obj 166 463 pow~;
#X obj 149 540 +~;
#X obj 11 248 +~ 1;
#X obj 217 418 r \$0-pow2;
#X obj 149 565 outlet~;
#X obj 750 122 + 1;
#X obj 808 41 loadbang;
#X obj 877 122 + 0;
#X obj 750 66 f \$1;
#X obj 877 67 f \$2;
#X obj 750 150 s \$0-knee;
#X obj 750 462 r \$0-knee;
#X obj 50 377 r \$0-pow1;
#X obj 781 621 s \$0-pow1;
#X obj 832 291 + 1;
#X obj 831 426 - 1;
#X obj 957 289 <= 0;
#X obj 781 583 spigot;
#X obj 831 583 spigot;
#X obj 880 583 spigot;
#X obj 930 584 spigot;
#X obj 999 289 > 0;
#X obj 883 290 * -0.5;
#X obj 883 315 + 0.5;
#X obj 833 347 spigot;
#X obj 883 345 spigot;
#X obj 877 147 * -1;
#X text 941 38 Sigmoid function with adjustable knee and bias;
#X text 941 62 Inlets/(args): Signal \, Knee (\$1) \, Bias (\$2);
#X obj 877 174 s \$0-bias;
#X obj 206 165 r \$0-bias;
#X obj 879 223 r \$0-bias;
#X obj 207 309 r \$0-bias;
#X obj 73 296 r \$0-bias;
#X obj 750 94 clip 0 999;
#X obj 877 93 clip -0.99 0.99;
#X obj 185 223 hv.lt~;
#X obj 206 194 sig~;
#X obj 1335 115 vsl 17 128 0 70 0 0 empty empty empty 0 -9 0 10 #e4e4e4 #4d4d4d #373737 0 1;
#X obj 1364 115 vsl 17 128 0 1 0 0 empty empty empty 0 -9 0 10 #e4e4e4 #4d4d4d #373737 0 1;
#X obj 344 27 inlet~;
#X obj 343 294 *~;
#X obj 344 377 /~;
#X obj 517 259 *~ -1;
#X obj 517 284 +~ 1;
#X obj 498 360 *~;
#X obj 469 326 -~;
#X obj 538 334 * -1;
#X obj 538 359 + 1;
#X obj 498 385 /~;
#X floatatom 387 353 5 0 0 0 - - - 0;
#X obj 387 328 + 1;
#X obj 344 402 pow~;
#X obj 343 430 -~;
#X obj 498 413 *~ -1;
#X obj 498 438 +~ 1;
#X obj 498 490 *~ -1;
#X obj 498 515 +~ 1;
#X obj 498 463 pow~;
#X obj 481 540 +~;
#X obj 343 248 +~ 1;
#X obj 549 418 r \$0-pow2;
#X obj 481 565 outlet~;
#X obj 382 377 r \$0-pow1;
#X obj 538 165 r \$0-bias;
#X obj 539 309 r \$0-bias;
#X obj 405 296 r \$0-bias;
#X obj 517 223 hv.lt~;
#X obj 538 194 sig~;
#X text 36 665 patch idea of pow-sigmoid from https://forum.pdpatchrepo.info/topic/13544/sigmoid-functions/3;
#X connect 0 0 13 0;
#X connect 0 0 27 0;
#X connect 0 0 61 0;
#X connect 1 0 34 0;
#X connect 2 0 33 0;
#X connect 3 0 4 0;
#X connect 3 1 4 1;
#X connect 4 0 43 0;
#X connect 4 0 45 0;
#X connect 5 0 49 0;
#X connect 6 0 40 0;
#X connect 8 0 9 0;
#X connect 9 0 19 0;
#X connect 10 0 11 0;
#X connect 11 0 12 1;
#X connect 12 0 16 0;
#X connect 13 0 12 0;
#X connect 14 0 15 0;
#X connect 15 0 16 1;
#X connect 16 0 21 0;
#X connect 17 0 9 1;
#X connect 18 0 17 0;
#X connect 19 0 20 0;
#X connect 20 0 26 0;
#X connect 21 0 22 0;
#X connect 22 0 25 0;
#X connect 23 0 24 0;
#X connect 24 0 26 1;
#X connect 25 0 23 0;
#X connect 26 0 29 0;
#X connect 27 0 8 0;
#X connect 28 0 25 1;
#X connect 30 0 35 0;
#X connect 31 0 34 0;
#X connect 31 0 33 0;
#X connect 32 0 51 0;
#X connect 33 0 59 0;
#X connect 34 0 60 0;
#X connect 36 0 4 0;
#X connect 36 0 42 0;
#X connect 36 0 44 0;
#X connect 37 0 19 1;
#X connect 39 0 5 0;
#X connect 40 0 3 0;
#X connect 41 0 42 1;
#X connect 41 0 43 1;
#X connect 41 0 49 1;
#X connect 42 0 38 0;
#X connect 43 0 7 0;
#X connect 44 0 7 0;
#X connect 45 0 38 0;
#X connect 46 0 44 1;
#X connect 46 0 45 1;
#X connect 46 0 50 1;
#X connect 47 0 48 0;
#X connect 48 0 50 0;
#X connect 49 0 6 0;
#X connect 50 0 6 0;
#X connect 51 0 54 0;
#X connect 55 0 62 0;
#X connect 56 0 39 0;
#X connect 56 0 47 0;
#X connect 56 0 41 0;
#X connect 56 0 46 0;
#X connect 57 0 14 0;
#X connect 58 0 13 1;
#X connect 58 0 18 0;
#X connect 59 0 30 0;
#X connect 60 0 32 0;
#X connect 61 0 10 0;
#X connect 61 0 20 1;
#X connect 61 0 8 1;
#X connect 62 0 61 1;
#X connect 63 0 59 0;
#X connect 64 0 60 0;
#X connect 65 0 71 0;
#X connect 65 0 85 0;
#X connect 65 0 92 0;
#X connect 66 0 67 0;
#X connect 67 0 77 0;
#X connect 68 0 69 0;
#X connect 69 0 70 1;
#X connect 70 0 74 0;
#X connect 71 0 70 0;
#X connect 72 0 73 0;
#X connect 73 0 74 1;
#X connect 74 0 79 0;
#X connect 75 0 67 1;
#X connect 76 0 75 0;
#X connect 77 0 78 0;
#X connect 78 0 84 0;
#X connect 79 0 80 0;
#X connect 80 0 83 0;
#X connect 81 0 82 0;
#X connect 82 0 84 1;
#X connect 83 0 81 0;
#X connect 84 0 87 0;
#X connect 85 0 66 0;
#X connect 86 0 83 1;
#X connect 88 0 77 1;
#X connect 89 0 93 0;
#X connect 90 0 72 0;
#X connect 91 0 71 1;
#X connect 91 0 76 0;
#X connect 92 0 68 0;
#X connect 92 0 78 1;
#X connect 92 0 66 1;
#X connect 93 0 92 1;
