#N canvas 827 239 527 327 12;
#X obj 119 211 else/play.file~;
#X msg 109 113 loop 1;
#X msg 157 145 start;
#X msg 249 145 stop;
#X obj 271 191 vsl 17 128 0 1 0 0 empty empty empty 0 -9 0 10 #e4e4e4 #4d4d4d #373737 0 1;
#X obj 210 262 *~ 0;
#X obj 157 454 dac~;
#X msg 74 79 open extra/example.wav;
#X obj 449 377 s~ in-debug-1;
#X obj 552 377 s~ in-debug-2;
#X obj 153 400 *~;
#X obj 220 341 tgl 25 0 empty empty empty 17 7 0 10 #e4e4e4 #4d4d4d #373737 0 1;
#X obj 220 375 sig~;
#X obj 462 217 osc~ 200;
#X connect 0 0 5 0;
#X connect 1 0 0 0;
#X connect 2 0 0 0;
#X connect 3 0 0 0;
#X connect 4 0 5 1;
#X connect 5 0 8 0;
#X connect 5 0 9 0;
#X connect 5 0 10 0;
#X connect 7 0 0 0;
#X connect 10 0 6 0;
#X connect 10 0 6 1;
#X connect 11 0 12 0;
#X connect 12 0 10 1;
