#N canvas 827 239 527 327 12;
#X obj 590 176 bng 25 250 50 0 empty empty empty 17 7 0 10 #e4e4e4 #4d4d4d #373737;
#X obj 362 348 dbtorms;
#X obj 115 414 dbtorms;
#X obj 105 526 swap;
#X obj 105 555 /;
#X text 630 113 start of build-up;
#X text 374 113 stereo orig;
#X obj 362 414 / 2;
#X obj 104 467 / 2;
#X text 182 120 stereo fx signal;
#X obj 221 804 *~;
#X obj 163 635 sig~;
#X obj 263 804 *~;
#X obj 354 80 inlet~ src_l;
#X obj 454 80 inlet~ src_r;
#X obj 137 77 inlet~ fx_l;
#X obj 237 77 inlet~ fx_r;
#X obj 590 79 inlet norm_standard;
#X obj 198 909 outlet~ fx_normalized_l;
#X obj 354 909 outlet~ fx_normalized_r;
#X floatatom 24 733 10 0 0 0 - - - 36;
#X floatatom 1093 581 22 0 0 0 - - - 36;
#X obj 362 298 f;
#X floatatom 1086 641 22 0 0 0 - - - 36;
#X obj 115 379 env~ 2048;
#X floatatom 1124 832 22 0 0 0 - - - 36;
#X obj 105 587 clip 0 20;
#X obj 1051 785 env~;
#X obj 148 700 lop~ 1;
#X obj 371 230 env~ 512;
#X obj 552 341 sig~;
#X obj 40 520 sig~;
#X obj 576 630 /~;
#X obj 537 406 lop~ 0.2;
#X obj 25 585 lop~ 0.2;
#X connect 0 0 22 0;
#X connect 1 0 7 0;
#X connect 2 0 8 0;
#X connect 3 0 4 0;
#X connect 3 1 4 1;
#X connect 4 0 26 0;
#X connect 7 0 3 1;
#X connect 7 0 21 0;
#X connect 7 0 30 0;
#X connect 8 0 3 0;
#X connect 8 0 23 0;
#X connect 8 0 31 0;
#X connect 10 0 18 0;
#X connect 11 0 28 0;
#X connect 12 0 19 0;
#X connect 13 0 29 0;
#X connect 14 0 29 0;
#X connect 15 0 10 1;
#X connect 15 0 24 0;
#X connect 16 0 12 1;
#X connect 16 0 24 0;
#X connect 17 0 0 0;
#X connect 22 0 1 0;
#X connect 24 0 2 0;
#X connect 26 0 11 0;
#X connect 26 0 20 0;
#X connect 27 0 25 0;
#X connect 28 0 10 0;
#X connect 28 0 12 0;
#X connect 29 0 22 1;
#X connect 30 0 33 0;
#X connect 31 0 34 0;
#X connect 32 0 27 0;
#X connect 33 0 32 0;
#X connect 34 0 32 1;
