#N canvas 827 239 527 327 12;
#X obj 229 164 tgl 25 0 empty empty empty 17 7 0 10 #e4e4e4 #4d4d4d #373737 0 1;
#X obj 194 289 * -1;
#X obj 47 230 + 0;
#X obj 47 259 * 1;
#X obj 236 289 * 2;
#X obj 236 318 swap 1;
#X obj 236 347 -;
#X obj 46 146 clip 0 1;
#X obj 39 80 inlet timemod0-1;
#X obj 47 388 outlet inversion;
#X obj 213 80 inlet inversion_switch;
#X connect 0 0 1 0;
#X connect 0 0 4 0;
#X connect 1 0 2 1;
#X connect 2 0 3 0;
#X connect 3 0 9 0;
#X connect 4 0 5 0;
#X connect 5 0 6 0;
#X connect 5 1 6 1;
#X connect 6 0 3 1;
#X connect 7 0 2 0;
#X connect 8 0 7 0;
#X connect 10 0 0 0;
