#N canvas 827 239 527 327 12;
#X obj 155 228 mult2values;
#X obj 155 261 mult2values;
#X obj 307 168 f;
#X obj 307 247 * -1;
#X obj 307 276 + 1;
#X obj 252 322 mult2values;
#X obj 155 379 add2values;
#X obj 307 209 / 100;
#X obj 58 86 inlet timemod;
#X obj 158 86 inlet maximum_amount;
#X obj 99 494 outlet value;
#X obj 325 86 inlet maximum_modulation_percentage;
#X obj 100 141 f;
#X connect 0 0 1 0;
#X connect 1 0 6 0;
#X connect 2 0 7 0;
#X connect 3 0 4 0;
#X connect 4 0 5 1;
#X connect 5 0 6 1;
#X connect 6 0 10 0;
#X connect 7 0 3 0;
#X connect 7 0 0 1;
#X connect 8 0 12 0;
#X connect 9 0 1 1;
#X connect 9 0 5 0;
#X connect 11 0 2 0;
#X connect 12 0 0 0;
