#N canvas 827 239 527 327 12;
#X obj 579 87 loadbang;
#X obj 239 88 loadbang;
#X msg 867 113 0;
#X obj 866 82 loadbang;
#X obj 95 80 loadbang;
#X obj 579 205 / 100;
#X obj 579 358 mult2values;
#X obj 838 59 inlet timemod_inversion;
#X obj 716 59 inlet timemod;
#X obj 62 148 f;
#X obj 239 165 f;
#X obj 579 164 f;
#X obj 545 57 inlet percent_modulation;
#X obj 195 57 inlet maximum;
#X obj 54 57 inlet minimum;
#X obj 847 150 tgl 25 0 empty empty empty 17 7 0 10 #e4e4e4 #4d4d4d #373737 0 1;
#X obj 847 196 * -1;
#X obj 718 279 + 0;
#X obj 718 308 * 1;
#X obj 889 196 * 2;
#X obj 889 226 swap 1;
#X obj 889 255 -;
#X obj 718 97 clip 0 1;
#X obj 342 238 f;
#X obj 108 558 f;
#X obj 201 480 f;
#X obj 108 480 * -1;
#X obj 108 525 add2values;
#X obj 342 480 pow;
#X obj 108 611 * 1;
#X obj 108 673 +;
#X obj 108 735 outlet value;
#X obj 342 59 inlet exponent_modulation;
#X obj 371 88 loadbang;
#X obj 371 165 f;
#X text 453 486 depending from the timemod inlet (0..1) \, which could be inversed \, the result will be a value between min and max value. Transfer function: value = min + (max- min) * timemod*percent_modulation)^ exponent;
#X obj 95 113 f \$1;
#X obj 586 119 f \$4;
#X obj 386 126 f \$3;
#X obj 249 119 f \$2;
#X connect 0 0 37 0;
#X connect 1 0 39 0;
#X connect 2 0 15 0;
#X connect 3 0 2 0;
#X connect 4 0 36 0;
#X connect 5 0 6 0;
#X connect 6 0 28 0;
#X connect 7 0 15 0;
#X connect 8 0 22 0;
#X connect 9 0 26 0;
#X connect 9 0 25 0;
#X connect 10 0 27 1;
#X connect 11 0 5 0;
#X connect 12 0 11 0;
#X connect 13 0 10 0;
#X connect 14 0 9 0;
#X connect 15 0 16 0;
#X connect 15 0 19 0;
#X connect 16 0 17 1;
#X connect 17 0 18 0;
#X connect 18 0 6 1;
#X connect 19 0 20 0;
#X connect 20 0 21 0;
#X connect 20 1 21 1;
#X connect 21 0 18 1;
#X connect 22 0 17 0;
#X connect 23 0 28 1;
#X connect 24 0 29 1;
#X connect 25 0 30 1;
#X connect 26 0 27 0;
#X connect 27 0 24 0;
#X connect 28 0 29 0;
#X connect 29 0 30 0;
#X connect 30 0 31 0;
#X connect 32 0 34 0;
#X connect 33 0 38 0;
#X connect 34 0 23 0;
#X connect 36 0 9 0;
#X connect 37 0 11 0;
#X connect 38 0 34 0;
#X connect 39 0 10 0;
