#N canvas 0 50 450 300 fx_chain_01 1;
#X obj 59 75 inlet~ audio_l;
#X obj 157 75 inlet~ audio_r;
#X obj 257 75 inlet~ timemod~;
#X obj 373 75 inlet timemod;
#X obj 59 904 outlet~ audio_l;
#X obj 165 904 outlet~ audio_r;
#X obj 373 104 s \$0-timemod;
#X obj 394 803 vsl 17 128 0 127 0 0 empty empty empty 0 -9 0 10 #e4e4e4 #4d4d4d #373737 0 1;
#X obj 423 803 vsl 17 128 0 127 0 0 empty empty empty 0 -9 0 10 #e4e4e4 #4d4d4d #373737 0 1;
#X obj 754 763 snapshot~;
#X obj 754 700 rmstodb~;
#X obj 1072 700 bng 25 250 50 0 empty empty empty 17 7 0 10 #e4e4e4 #4d4d4d #373737;
#X obj 896 765 snapshot~;
#X obj 896 702 rmstodb~;
#X obj 1087 733 metro 20;
#N canvas 0 50 450 300 bp2 0;
#X obj 420 143 hsl 128 11 0 1 0 0 empty empty empty -2 -8 0 10 #e4e4e4 #4d4d4d #373737 0 1;
#X obj 233 286 * 2000, f 7;
#X obj 414 314 * 7000, f 7;
#X obj 233 314 + 30, f 6;
#X obj 38 350 hv.filters/bandpass2 10 5, f 23;
#X obj 219 350 hv.filters/bandpass2 10 5, f 23;
#X obj 233 102 r \$0-timemod, f 13;
#X obj 588 143 hsl 128 11 0 1 0 0 empty empty empty -2 -8 0 10 #e4e4e4 #4d4d4d #373737 0 1;
#X obj 581 316 * 20, f 5;
#X text 577 112 debug: bp max Q, f 16;
#X text 409 112 debug: bp max freq;
#X obj 627 350 + 1;
#X obj 44 61 inlet~ audio_l, f 13;
#X obj 142 61 inlet~ audio_r, f 13;
#X obj 38 602 outlet~ audio_l;
#X obj 144 602 outlet~ audio_r;
#X obj 760 143 hsl 128 11 0 1 0 0 empty empty empty -2 -8 0 10 #e4e4e4 #4d4d4d #373737 0 1;
#X text 749 112 debug: bp modulation amount;
#X obj 754 314 clip 0 1, f 7;
#X obj 822 314 r \$0-modsum-factor;
#X obj 233 143 + 0;
#X obj 233 172 * 1;
#X obj 982 138 tgl 25 0 empty empty empty 17 7 0 10 #e4e4e4 #4d4d4d #373737 0 1;
#X text 965 112 debug: hp modulation inversion;
#X obj 982 314 * -1;
#X obj 1024 314 * 2;
#X obj 1024 343 swap 1;
#X obj 1024 372 -;
#X obj 800 61 r \$0-mod-amount;
#X obj 800 90 route bp_mod;
#X obj 1037 61 r fx_bp_mod_inv @hv_param 0 1 0 toggle;
#X obj 578 61 r fx_bp_q @hv_param 0 1 0.1;
#X obj 374 61 r fx_bp_freq @hv_param 0 1 0.7;
#X obj 627 316 * 10, f 5;
#X obj 233 201 pow 2;
#X obj 417 90 loadbang;
#X msg 493 90 0.7;
#X msg 979 96 0;
#X msg 614 96 0.1;
#X obj 754 372 mult2values;
#X obj 627 432 mult2values;
#X obj 627 457 sig~;
#X obj 600 489 lop~ 100;
#X obj 219 514 *~;
#X obj 38 514 *~;
#X connect 0 0 2 0;
#X connect 1 0 3 0;
#X connect 2 0 1 1;
#X connect 3 0 4 1;
#X connect 3 0 5 1;
#X connect 4 0 44 0;
#X connect 5 0 43 0;
#X connect 6 0 20 0;
#X connect 7 0 8 0;
#X connect 7 0 33 0;
#X connect 8 0 5 2;
#X connect 8 0 4 2;
#X connect 11 0 40 0;
#X connect 12 0 4 0;
#X connect 13 0 5 0;
#X connect 16 0 18 0;
#X connect 18 0 39 0;
#X connect 19 0 39 1;
#X connect 20 0 21 0;
#X connect 21 0 34 0;
#X connect 22 0 24 0;
#X connect 22 0 25 0;
#X connect 24 0 20 1;
#X connect 25 0 26 0;
#X connect 26 0 27 0;
#X connect 26 1 27 1;
#X connect 27 0 21 1;
#X connect 28 0 29 0;
#X connect 29 0 16 0;
#X connect 30 0 22 0;
#X connect 31 0 7 0;
#X connect 32 0 0 0;
#X connect 33 0 11 0;
#X connect 34 0 1 0;
#X connect 35 0 36 0;
#X connect 35 0 38 0;
#X connect 35 0 37 0;
#X connect 36 0 0 0;
#X connect 37 0 22 0;
#X connect 38 0 7 0;
#X connect 39 0 40 1;
#X connect 40 0 41 0;
#X connect 41 0 42 0;
#X connect 42 0 43 1;
#X connect 42 0 44 1;
#X connect 43 0 15 0;
#X connect 44 0 14 0;
#X restore 175 236 pd bp2;
#N canvas 0 50 450 300 hp2 0;
#X obj 429 145 hsl 128 11 0 1 0 0 empty empty empty -2 -8 0 10 #e4e4e4 #4d4d4d #373737 0 1;
#X obj 236 280 * 2000, f 7;
#X obj 418 263 * 7000, f 7;
#X obj 253 61 r \$0-timemod, f 13;
#X obj 583 142 hsl 128 11 0 1 0 0 empty empty empty -2 -8 0 10 #e4e4e4 #4d4d4d #373737 0 1;
#X obj 585 265 * 20, f 5;
#X obj 585 299 + 1;
#X obj 44 61 inlet~ audio_l, f 13;
#X obj 142 61 inlet~ audio_r, f 13;
#X obj 40 606 outlet~ audio_l;
#X obj 146 606 outlet~ audio_r;
#X obj 760 143 hsl 128 11 0 1 0 0 empty empty empty -2 -8 0 10 #e4e4e4 #4d4d4d #373737 0 1;
#X obj 758 263 clip 0 1, f 7;
#X obj 222 344 hv.filters/highpass 10 5, f 23;
#X obj 41 344 hv.filters/highpass 10 5, f 23;
#X obj 824 263 r \$0-modsum-factor;
#X obj 975 138 tgl 25 0 empty empty empty 17 7 0 10 #e4e4e4 #4d4d4d #373737 0 1;
#X text 958 112 debug: hp modulation inversion;
#X obj 975 263 * -1;
#X obj 236 173 + 0;
#X obj 236 202 * 1;
#X obj 1017 263 * 2;
#X obj 1017 292 swap 1;
#X obj 1017 321 -;
#X text 749 112 debug: hp modulation amount;
#X text 577 112 debug: hp max Q, f 16;
#X text 409 112 debug: hp max freq;
#X obj 413 61 r fx_hp_freq @hv_param 0 1 0.7;
#X obj 617 61 r fx_hp_q @hv_param 0 1 0.1;
#X obj 1076 61 r fx_hp_mod_inv @hv_param 0 1 0 toggle;
#X obj 839 90 route hp_mod;
#X obj 839 61 r \$0-mod-amount;
#X obj 631 299 + 1;
#X obj 631 265 * -0.6;
#X obj 236 231 pow 2;
#X obj 236 308 + 30, f 6;
#X obj 432 90 loadbang;
#X msg 504 90 0.7;
#X msg 994 96 0;
#X msg 629 96 0.1;
#X obj 758 331 mult2values;
#X obj 631 399 mult2values;
#X obj 631 425 sig~;
#X obj 604 457 lop~ 100;
#X obj 222 524 *~;
#X obj 41 524 *~;
#X connect 0 0 2 0;
#X connect 1 0 35 0;
#X connect 2 0 1 1;
#X connect 3 0 19 0;
#X connect 4 0 5 0;
#X connect 4 0 33 0;
#X connect 5 0 6 0;
#X connect 6 0 13 2;
#X connect 6 0 14 2;
#X connect 7 0 14 0;
#X connect 8 0 13 0;
#X connect 11 0 12 0;
#X connect 12 0 40 0;
#X connect 13 0 44 0;
#X connect 14 0 45 0;
#X connect 15 0 40 1;
#X connect 16 0 18 0;
#X connect 16 0 21 0;
#X connect 18 0 19 1;
#X connect 19 0 20 0;
#X connect 20 0 34 0;
#X connect 21 0 22 0;
#X connect 22 0 23 0;
#X connect 22 1 23 1;
#X connect 23 0 20 1;
#X connect 27 0 0 0;
#X connect 28 0 4 0;
#X connect 29 0 16 0;
#X connect 30 0 11 0;
#X connect 31 0 30 0;
#X connect 32 0 41 0;
#X connect 33 0 32 0;
#X connect 34 0 1 0;
#X connect 35 0 13 1;
#X connect 35 0 14 1;
#X connect 36 0 37 0;
#X connect 36 0 39 0;
#X connect 36 0 38 0;
#X connect 37 0 0 0;
#X connect 38 0 16 0;
#X connect 39 0 4 0;
#X connect 40 0 41 1;
#X connect 41 0 42 0;
#X connect 42 0 43 0;
#X connect 43 0 44 1;
#X connect 43 0 45 1;
#X connect 44 0 10 0;
#X connect 45 0 9 0;
#X restore 111 236 pd hp2;
#X obj 707 323 f 0;
#X obj 769 323 f 0;
#X obj 833 323 f 0;
#X obj 898 323 f 0;
#X obj 707 514 swap 1;
#X obj 707 545 /;
#X obj 705 605 s \$0-modsum-factor;
#N canvas 0 50 450 300 notch 0;
#X obj 422 120 hsl 128 11 0 1 0 0 empty empty empty -2 -8 0 10 #e4e4e4 #4d4d4d #373737 0 1;
#X obj 231 232 * 2000, f 7;
#X obj 412 260 * 7000, f 7;
#X obj 231 77 r \$0-timemod, f 13;
#X obj 588 118 hsl 128 11 0 1 0 0 empty empty empty -2 -8 0 10 #e4e4e4 #4d4d4d #373737 0 1;
#X obj 42 36 inlet~ audio_l, f 13;
#X obj 140 36 inlet~ audio_r, f 13;
#X obj 36 548 outlet~ audio_l;
#X obj 142 548 outlet~ audio_r;
#X obj 758 118 hsl 128 11 0 1 0 0 empty empty empty -2 -8 0 10 #e4e4e4 #4d4d4d #373737 0 1;
#X obj 752 260 clip 0 1, f 7;
#X obj 820 260 r \$0-modsum-factor;
#X obj 231 118 + 0;
#X obj 231 147 * 1;
#X obj 980 113 tgl 25 0 empty empty empty 17 7 0 10 #e4e4e4 #4d4d4d #373737 0 1;
#X obj 980 260 * -1;
#X obj 1022 260 * 2;
#X obj 1022 289 swap 1;
#X obj 1022 318 -;
#X obj 237 361 hv.filters/notch 10 5;
#X obj 42 361 hv.filters/notch 10 5;
#X obj 579 262 * 0.5;
#X obj 625 262 * -1, f 5;
#X obj 231 260 + 20, f 6;
#X obj 625 296 + 2.5;
#X text 407 87 debug: notch max freq;
#X text 575 87 debug: notch max Q, f 19;
#X text 747 87 debug: notch modulation amount;
#X text 963 87 debug: notch modulation inversion;
#X obj 813 36 r \$0-mod-amount;
#X obj 1050 36 r fx_notch_mod_inv @hv_param 0 1 0 toggle;
#X obj 813 65 route notch_mod;
#X obj 591 36 r fx_notch_q @hv_param 0 1 0.1;
#X obj 387 36 r fx_notch_freq @hv_param 0 1 0.7;
#X obj 231 187 pow 2;
#X obj 418 59 loadbang;
#X msg 490 59 0.7;
#X msg 980 65 0;
#X msg 615 65 0.1;
#X obj 752 339 mult2values;
#X obj 625 392 mult2values;
#X obj 615 422 sig~;
#X obj 588 454 lop~ 100;
#X obj 185 506 *~;
#X obj 29 494 *~;
#X connect 0 0 2 0;
#X connect 1 0 23 0;
#X connect 2 0 1 1;
#X connect 3 0 12 0;
#X connect 4 0 21 0;
#X connect 4 0 22 0;
#X connect 5 0 20 0;
#X connect 6 0 19 0;
#X connect 9 0 10 0;
#X connect 10 0 39 0;
#X connect 11 0 39 1;
#X connect 12 0 13 0;
#X connect 13 0 34 0;
#X connect 14 0 15 0;
#X connect 14 0 16 0;
#X connect 15 0 12 1;
#X connect 16 0 17 0;
#X connect 17 0 18 0;
#X connect 17 1 18 1;
#X connect 18 0 13 1;
#X connect 19 0 43 0;
#X connect 20 0 44 0;
#X connect 21 0 19 2;
#X connect 21 0 20 2;
#X connect 22 0 24 0;
#X connect 23 0 20 1;
#X connect 23 0 19 1;
#X connect 24 0 40 0;
#X connect 29 0 31 0;
#X connect 30 0 14 0;
#X connect 31 0 9 0;
#X connect 32 0 4 0;
#X connect 33 0 0 0;
#X connect 34 0 1 0;
#X connect 35 0 36 0;
#X connect 35 0 38 0;
#X connect 35 0 37 0;
#X connect 36 0 0 0;
#X connect 37 0 14 0;
#X connect 38 0 4 0;
#X connect 39 0 40 1;
#X connect 40 0 41 0;
#X connect 41 0 42 0;
#X connect 42 0 44 1;
#X connect 42 0 43 1;
#X connect 43 0 8 0;
#X connect 44 0 7 0;
#X restore 236 236 pd notch;
#N canvas 0 50 450 300 lp2 0;
#X obj 423 132 hsl 128 11 0 1 0 0 empty empty empty -2 -8 0 10 #e4e4e4 #4d4d4d #373737 0 1;
#X obj 239 281 * 2000;
#X obj 421 252 * 7000, f 7;
#X obj 239 87 r \$0-timemod, f 13;
#X obj 586 134 hsl 128 11 0 1 0 0 empty empty empty -2 -8 0 10 #e4e4e4 #4d4d4d #373737 0 1;
#X obj 588 254 * 20, f 5;
#X obj 588 288 + 1;
#X obj 634 288 + 1;
#X obj 47 50 inlet~ audio_l, f 13;
#X obj 145 50 inlet~ audio_r, f 13;
#X obj 43 608 outlet~ audio_l;
#X obj 149 608 outlet~ audio_r;
#X obj 763 132 hsl 128 11 0 1 0 0 empty empty empty -2 -8 0 10 #e4e4e4 #4d4d4d #373737 0 1;
#X obj 761 252 clip 0 1, f 7;
#X obj 827 252 r \$0-modsum-factor;
#X obj 978 127 tgl 25 0 empty empty empty 17 7 0 10 #e4e4e4 #4d4d4d #373737 0 1;
#X obj 978 252 * -1;
#X obj 239 162 + 0;
#X obj 239 191 * 1;
#X obj 1020 252 * 2;
#X obj 1020 281 swap 1;
#X obj 1020 310 -;
#X obj 416 50 r fx_lp_freq @hv_param 0 1 0.7;
#X obj 620 50 r fx_lp_q @hv_param 0 1 0.1;
#X obj 1079 50 r fx_lp_mod_inv @hv_param 0 1 0 toggle;
#X obj 43 445 hv.filters/lowpass 10 5;
#X obj 219 445 hv.filters/lowpass 10 5;
#X obj 239 310 + 40, f 6;
#X obj 239 233 pow 2;
#X text 412 101 debug: lp max freq;
#X text 580 101 debug: lp max Q, f 16;
#X text 752 101 debug: lp modulation amount;
#X text 961 101 debug: lp modulation inversion;
#X obj 830 79 route lp_mod;
#X obj 634 254 * -0.5, f 8;
#X obj 439 73 loadbang;
#X msg 511 73 0.7;
#X msg 1001 79 0;
#X msg 636 79 0.1;
#X obj 588 459 sig~;
#X obj 225 526 *~;
#X obj 44 526 *~;
#X obj 761 335 mult2values;
#X obj 634 417 mult2values;
#X obj 830 50 f;
#X obj 830 20 r \$0-mod-amount;
#X obj 588 490 lop~ 100;
#X connect 0 0 2 0;
#X connect 1 0 27 0;
#X connect 2 0 1 1;
#X connect 3 0 17 0;
#X connect 4 0 5 0;
#X connect 4 0 34 0;
#X connect 5 0 6 0;
#X connect 6 0 25 2;
#X connect 6 0 26 2;
#X connect 7 0 43 0;
#X connect 8 0 25 0;
#X connect 9 0 26 0;
#X connect 12 0 13 0;
#X connect 13 0 42 0;
#X connect 14 0 42 1;
#X connect 15 0 16 0;
#X connect 15 0 19 0;
#X connect 16 0 17 1;
#X connect 17 0 18 0;
#X connect 18 0 28 0;
#X connect 19 0 20 0;
#X connect 20 0 21 0;
#X connect 20 1 21 1;
#X connect 21 0 18 1;
#X connect 22 0 0 0;
#X connect 23 0 4 0;
#X connect 24 0 15 0;
#X connect 25 0 41 0;
#X connect 26 0 40 0;
#X connect 27 0 25 1;
#X connect 27 0 26 1;
#X connect 28 0 1 0;
#X connect 33 0 13 0;
#X connect 34 0 7 0;
#X connect 35 0 36 0;
#X connect 35 0 38 0;
#X connect 35 0 37 0;
#X connect 36 0 0 0;
#X connect 37 0 15 0;
#X connect 38 0 4 0;
#X connect 39 0 46 0;
#X connect 40 0 11 0;
#X connect 41 0 10 0;
#X connect 42 0 43 1;
#X connect 43 0 39 0;
#X connect 44 0 33 0;
#X connect 45 0 44 0;
#X connect 46 0 41 1;
#X connect 46 0 40 1;
#X restore 54 236 pd lp2;
#X msg 1106 700 stop;
#X obj 763 735 r \$0-metro;
#X obj 905 737 r \$0-metro;
#X obj 1087 759 s \$0-metro;
#X obj 751 669 r~ \$0-peak_orig;
#X obj 896 669 r~ \$0-peak_fx;
#N canvas 0 50 450 300 flanger 0;
#X obj 412 117 hsl 128 11 0 1 0 0 empty empty empty -2 -8 0 10 #e4e4e4 #4d4d4d #373737 0 1;
#X obj 228 72 r \$0-timemod, f 13;
#X obj 36 35 inlet~ audio_l, f 13;
#X obj 134 35 inlet~ audio_r, f 13;
#X obj 35 1110 outlet~ audio_l;
#X obj 141 1110 outlet~ audio_r;
#X obj 1205 447 hsl 128 11 0 1 0 0 empty empty empty -2 -8 0 10 #e4e4e4 #4d4d4d #373737 0 1;
#X obj 1200 558 clip 0 1, f 7;
#X obj 1266 558 r \$0-modsum-factor;
#X obj 1198 346 r \$0-mod-amount;
#X obj 1198 375 route flanger_mod;
#X text 1191 407 debug: flanger modulation amount;
#X text 401 86 debug: flanger speed max;
#X obj 405 35 r fx_flanger_freq_max @hv_param 0 1 0.7;
#X obj 673 117 hsl 128 11 0 1 0 0 empty empty empty -2 -8 0 10 #e4e4e4 #4d4d4d #373737 0 1;
#X obj 666 35 r fx_flanger_freq_mod @hv_param 0 1 1;
#X msg 310 286 speed \$1;
#X obj 68 714 loadbang;
#X msg 68 743 mix 1;
#X obj 412 395 hsl 128 11 0 1 0 0 empty empty empty -2 -8 0 10 #e4e4e4 #4d4d4d #373737 0 1;
#X obj 673 395 hsl 128 11 0 1 0 0 empty empty empty -2 -8 0 10 #e4e4e4 #4d4d4d #373737 0 1;
#X obj 666 313 r fx_flanger_fback_mod @hv_param 0 1 1;
#X text 662 364 debug: flanger feedback mod amnt;
#X text 662 86 debug: flanger speed mod amnt;
#X obj 405 313 r fx_flanger_fback_max @hv_param 0 1 0.5;
#X text 401 364 debug: flanger feedback max;
#X obj 405 422 * 2, f 7;
#X obj 405 456 - 1;
#X msg 224 676 feedback \$1;
#X obj 408 761 hsl 128 11 0 1 0 0 empty empty empty -2 -8 0 10 #e4e4e4 #4d4d4d #373737 0 1;
#X obj 677 752 hsl 128 11 0 1 0 0 empty empty empty -2 -8 0 10 #e4e4e4 #4d4d4d #373737 0 1;
#X obj 401 670 r fx_flanger_intensity_max @hv_param 0 1 0.5;
#X obj 687 670 r fx_flanger_intensity_mod @hv_param 0 1 1;
#X text 658 721 debug: flanger intensity mod amnt;
#X text 397 721 debug: flanger intensity max;
#X msg 202 866 intensity \$1;
#X msg 1445 560 1;
#X msg 1474 560 0;
#X obj 746 772 * -1;
#X obj 746 801 + 1;
#X obj 750 465 * -1;
#X obj 750 494 + 1;
#X obj 808 145 * -1;
#X obj 808 174 + 1;
#X obj 328 242 * 20;
#X obj 1191 695 mult2values;
#X obj 340 812 mult2values;
#X obj 606 438 mult2values;
#X obj 632 560 mult2values;
#X obj 632 846 mult2values;
#X obj 726 231 mult2values;
#X obj 604 155 mult2values;
#X obj 509 207 mult2values;
#X obj 532 255 add2values;
#X obj 442 547 mult2values;
#X obj 552 606 add2values;
#X obj 458 846 mult2values;
#X obj 481 894 add2values;
#X obj 424 62 loadbang;
#X msg 496 62 0.7;
#X msg 694 62 1;
#X obj 430 346 loadbang;
#X msg 700 346 1;
#X obj 418 701 loadbang;
#X msg 688 701 1;
#X msg 502 346 0.5;
#X msg 490 701 0.5;
#X obj 47 925 hv.flanger2~ 20;
#X obj 1191 724 sig~;
#X obj 217 1076 *~;
#X obj 36 1076 *~;
#X connect 0 0 50 0;
#X connect 0 0 52 0;
#X connect 1 0 46 0;
#X connect 1 0 47 0;
#X connect 1 0 51 0;
#X connect 2 0 67 0;
#X connect 3 0 67 1;
#X connect 6 0 7 0;
#X connect 7 0 45 0;
#X connect 8 0 45 1;
#X connect 9 0 10 0;
#X connect 10 0 6 0;
#X connect 13 0 0 0;
#X connect 14 0 42 0;
#X connect 14 0 51 1;
#X connect 15 0 14 0;
#X connect 16 0 67 2;
#X connect 17 0 18 0;
#X connect 18 0 67 2;
#X connect 19 0 26 0;
#X connect 20 0 40 0;
#X connect 20 0 47 1;
#X connect 21 0 20 0;
#X connect 24 0 19 0;
#X connect 26 0 27 0;
#X connect 27 0 48 0;
#X connect 27 0 54 0;
#X connect 28 0 67 2;
#X connect 29 0 49 0;
#X connect 29 0 56 1;
#X connect 30 0 38 0;
#X connect 30 0 46 1;
#X connect 31 0 29 0;
#X connect 32 0 30 0;
#X connect 35 0 67 2;
#X connect 36 0 45 1;
#X connect 37 0 45 1;
#X connect 38 0 39 0;
#X connect 39 0 49 1;
#X connect 40 0 41 0;
#X connect 41 0 48 1;
#X connect 42 0 43 0;
#X connect 43 0 50 1;
#X connect 44 0 16 0;
#X connect 45 0 68 0;
#X connect 46 0 56 0;
#X connect 47 0 54 1;
#X connect 48 0 55 1;
#X connect 49 0 57 1;
#X connect 50 0 53 1;
#X connect 51 0 52 1;
#X connect 52 0 53 0;
#X connect 53 0 44 0;
#X connect 54 0 55 0;
#X connect 55 0 28 0;
#X connect 56 0 57 0;
#X connect 57 0 35 0;
#X connect 58 0 59 0;
#X connect 58 0 60 0;
#X connect 59 0 0 0;
#X connect 60 0 14 0;
#X connect 61 0 65 0;
#X connect 61 0 62 0;
#X connect 62 0 20 0;
#X connect 63 0 66 0;
#X connect 63 0 64 0;
#X connect 64 0 30 0;
#X connect 65 0 19 0;
#X connect 66 0 29 0;
#X connect 67 0 70 0;
#X connect 67 1 69 0;
#X connect 68 0 69 1;
#X connect 68 0 70 1;
#X connect 69 0 5 0;
#X connect 70 0 4 0;
#X restore 310 236 pd flanger;
#N canvas 0 50 450 300 phaser 0;
#X obj 366 360 +~ 1;
#X obj 366 387 *~ 0.5;
#X text 366 212 Low Frequency Oscillator;
#X text 494 415 Depth (ms);
#X obj 366 333 osc~ 1;
#X text 426 233 Rate (Hz);
#X text 511 455 Shift (ms);
#X obj 121 670 +~, f 5;
#X obj 370 236 nbx 5 14 -1e+37 1e+37 0 0 empty \$0-rate empty 0 -8 0 10 #fcfcfc #000000 #000000 0 256;
#X obj 435 419 nbx 5 14 0 1e+37 0 0 empty \$0-depth empty 0 -8 0 10 #fcfcfc #000000 #000000 0 256;
#X obj 451 459 nbx 5 14 0 1e+37 0 0 empty \$0-shift empty 0 -8 0 10 #fcfcfc #000000 #000000 0 256;
#N canvas 0 22 622 635 apset~ 0;
#N canvas 0 22 450 300 ap~ 0;
#X obj 127 160 rpole~;
#X obj 127 135 rzero_rev~;
#X obj 127 92 inlet~;
#X obj 127 185 outlet~;
#X obj 204 92 inlet~;
#X connect 0 0 3 0;
#X connect 1 0 0 0;
#X connect 2 0 1 0;
#X connect 4 0 1 1;
#X connect 4 0 0 1;
#X restore 155 36 pd ap~;
#N canvas 0 22 450 300 ap~ 0;
#X obj 127 160 rpole~;
#X obj 127 135 rzero_rev~;
#X obj 127 92 inlet~;
#X obj 127 185 outlet~;
#X obj 204 92 inlet~;
#X connect 0 0 3 0;
#X connect 1 0 0 0;
#X connect 2 0 1 0;
#X connect 4 0 1 1;
#X connect 4 0 0 1;
#X restore 155 66 pd ap~;
#N canvas 0 22 450 300 ap~ 0;
#X obj 127 160 rpole~;
#X obj 127 135 rzero_rev~;
#X obj 127 92 inlet~;
#X obj 127 185 outlet~;
#X obj 204 92 inlet~;
#X connect 0 0 3 0;
#X connect 1 0 0 0;
#X connect 2 0 1 0;
#X connect 4 0 1 1;
#X connect 4 0 0 1;
#X restore 155 96 pd ap~;
#N canvas 0 22 450 300 ap~ 0;
#X obj 127 160 rpole~;
#X obj 127 135 rzero_rev~;
#X obj 127 92 inlet~;
#X obj 127 185 outlet~;
#X obj 204 92 inlet~;
#X connect 0 0 3 0;
#X connect 1 0 0 0;
#X connect 2 0 1 0;
#X connect 4 0 1 1;
#X connect 4 0 0 1;
#X restore 155 126 pd ap~;
#N canvas 0 22 450 300 ap~ 0;
#X obj 127 160 rpole~;
#X obj 127 135 rzero_rev~;
#X obj 127 92 inlet~;
#X obj 127 185 outlet~;
#X obj 204 92 inlet~;
#X connect 0 0 3 0;
#X connect 1 0 0 0;
#X connect 2 0 1 0;
#X connect 4 0 1 1;
#X connect 4 0 0 1;
#X restore 155 156 pd ap~;
#N canvas 0 22 450 300 ap~ 0;
#X obj 127 160 rpole~;
#X obj 127 135 rzero_rev~;
#X obj 127 92 inlet~;
#X obj 127 185 outlet~;
#X obj 204 92 inlet~;
#X connect 0 0 3 0;
#X connect 1 0 0 0;
#X connect 2 0 1 0;
#X connect 4 0 1 1;
#X connect 4 0 0 1;
#X restore 155 186 pd ap~;
#N canvas 0 22 450 300 ap~ 0;
#X obj 127 160 rpole~;
#X obj 127 135 rzero_rev~;
#X obj 127 92 inlet~;
#X obj 127 185 outlet~;
#X obj 204 92 inlet~;
#X connect 0 0 3 0;
#X connect 1 0 0 0;
#X connect 2 0 1 0;
#X connect 4 0 1 1;
#X connect 4 0 0 1;
#X restore 155 216 pd ap~;
#N canvas 0 22 450 300 ap~ 0;
#X obj 127 160 rpole~;
#X obj 127 135 rzero_rev~;
#X obj 127 92 inlet~;
#X obj 127 185 outlet~;
#X obj 204 92 inlet~;
#X connect 0 0 3 0;
#X connect 1 0 0 0;
#X connect 2 0 1 0;
#X connect 4 0 1 1;
#X connect 4 0 0 1;
#X restore 155 246 pd ap~;
#N canvas 0 22 450 300 ap~ 0;
#X obj 127 160 rpole~;
#X obj 127 135 rzero_rev~;
#X obj 127 92 inlet~;
#X obj 127 185 outlet~;
#X obj 204 92 inlet~;
#X connect 0 0 3 0;
#X connect 1 0 0 0;
#X connect 2 0 1 0;
#X connect 4 0 1 1;
#X connect 4 0 0 1;
#X restore 155 276 pd ap~;
#N canvas 0 22 450 300 ap~ 0;
#X obj 127 160 rpole~;
#X obj 127 135 rzero_rev~;
#X obj 127 92 inlet~;
#X obj 127 185 outlet~;
#X obj 204 92 inlet~;
#X connect 0 0 3 0;
#X connect 1 0 0 0;
#X connect 2 0 1 0;
#X connect 4 0 1 1;
#X connect 4 0 0 1;
#X restore 155 306 pd ap~;
#N canvas 0 22 450 300 ap~ 0;
#X obj 127 160 rpole~;
#X obj 127 135 rzero_rev~;
#X obj 127 92 inlet~;
#X obj 127 185 outlet~;
#X obj 204 92 inlet~;
#X connect 0 0 3 0;
#X connect 1 0 0 0;
#X connect 2 0 1 0;
#X connect 4 0 1 1;
#X connect 4 0 0 1;
#X restore 155 336 pd ap~;
#N canvas 0 22 450 300 ap~ 0;
#X obj 127 160 rpole~;
#X obj 127 135 rzero_rev~;
#X obj 127 92 inlet~;
#X obj 127 185 outlet~;
#X obj 204 92 inlet~;
#X connect 0 0 3 0;
#X connect 1 0 0 0;
#X connect 2 0 1 0;
#X connect 4 0 1 1;
#X connect 4 0 0 1;
#X restore 155 366 pd ap~;
#N canvas 0 22 450 300 ap~ 0;
#X obj 127 160 rpole~;
#X obj 127 135 rzero_rev~;
#X obj 127 92 inlet~;
#X obj 127 185 outlet~;
#X obj 204 92 inlet~;
#X connect 0 0 3 0;
#X connect 1 0 0 0;
#X connect 2 0 1 0;
#X connect 4 0 1 1;
#X connect 4 0 0 1;
#X restore 155 396 pd ap~;
#N canvas 0 22 450 300 ap~ 0;
#X obj 127 160 rpole~;
#X obj 127 135 rzero_rev~;
#X obj 127 92 inlet~;
#X obj 127 185 outlet~;
#X obj 204 92 inlet~;
#X connect 0 0 3 0;
#X connect 1 0 0 0;
#X connect 2 0 1 0;
#X connect 4 0 1 1;
#X connect 4 0 0 1;
#X restore 155 426 pd ap~;
#N canvas 0 22 450 300 ap~ 0;
#X obj 127 160 rpole~;
#X obj 127 135 rzero_rev~;
#X obj 127 92 inlet~;
#X obj 127 185 outlet~;
#X obj 204 92 inlet~;
#X connect 0 0 3 0;
#X connect 1 0 0 0;
#X connect 2 0 1 0;
#X connect 4 0 1 1;
#X connect 4 0 0 1;
#X restore 155 456 pd ap~;
#N canvas 0 22 450 300 ap~ 0;
#X obj 127 160 rpole~;
#X obj 127 135 rzero_rev~;
#X obj 127 92 inlet~;
#X obj 127 185 outlet~;
#X obj 204 92 inlet~;
#X connect 0 0 3 0;
#X connect 1 0 0 0;
#X connect 2 0 1 0;
#X connect 4 0 1 1;
#X connect 4 0 0 1;
#X restore 155 486 pd ap~;
#X obj 155 6 inlet~;
#X obj 225 6 inlet~;
#X obj 155 511 outlet~;
#X connect 0 0 1 0;
#X connect 1 0 2 0;
#X connect 2 0 3 0;
#X connect 3 0 4 0;
#X connect 4 0 5 0;
#X connect 5 0 6 0;
#X connect 6 0 7 0;
#X connect 7 0 8 0;
#X connect 8 0 9 0;
#X connect 9 0 10 0;
#X connect 10 0 11 0;
#X connect 11 0 12 0;
#X connect 12 0 13 0;
#X connect 13 0 14 0;
#X connect 14 0 15 0;
#X connect 15 0 18 0;
#X connect 16 0 0 0;
#X connect 17 0 0 1;
#X connect 17 0 1 1;
#X connect 17 0 2 1;
#X connect 17 0 3 1;
#X connect 17 0 4 1;
#X connect 17 0 5 1;
#X connect 17 0 6 1;
#X connect 17 0 7 1;
#X connect 17 0 8 1;
#X connect 17 0 9 1;
#X connect 17 0 10 1;
#X connect 17 0 11 1;
#X connect 17 0 12 1;
#X connect 17 0 13 1;
#X connect 17 0 14 1;
#X connect 17 0 15 1;
#X restore 150 574 pd apset~;
#X obj 366 446 *~ 0.3, f 9;
#X obj 366 486 +~ 0.6, f 11;
#X obj 210 541 clip~ 0 1;
#N canvas 0 22 622 635 apset~ 0;
#N canvas 0 22 450 300 ap~ 0;
#X obj 127 160 rpole~;
#X obj 127 135 rzero_rev~;
#X obj 127 92 inlet~;
#X obj 127 185 outlet~;
#X obj 204 92 inlet~;
#X connect 0 0 3 0;
#X connect 1 0 0 0;
#X connect 2 0 1 0;
#X connect 4 0 1 1;
#X connect 4 0 0 1;
#X restore 155 36 pd ap~;
#N canvas 0 22 450 300 ap~ 0;
#X obj 127 160 rpole~;
#X obj 127 135 rzero_rev~;
#X obj 127 92 inlet~;
#X obj 127 185 outlet~;
#X obj 204 92 inlet~;
#X connect 0 0 3 0;
#X connect 1 0 0 0;
#X connect 2 0 1 0;
#X connect 4 0 1 1;
#X connect 4 0 0 1;
#X restore 155 66 pd ap~;
#N canvas 0 22 450 300 ap~ 0;
#X obj 127 160 rpole~;
#X obj 127 135 rzero_rev~;
#X obj 127 92 inlet~;
#X obj 127 185 outlet~;
#X obj 204 92 inlet~;
#X connect 0 0 3 0;
#X connect 1 0 0 0;
#X connect 2 0 1 0;
#X connect 4 0 1 1;
#X connect 4 0 0 1;
#X restore 155 96 pd ap~;
#N canvas 0 22 450 300 ap~ 0;
#X obj 127 160 rpole~;
#X obj 127 135 rzero_rev~;
#X obj 127 92 inlet~;
#X obj 127 185 outlet~;
#X obj 204 92 inlet~;
#X connect 0 0 3 0;
#X connect 1 0 0 0;
#X connect 2 0 1 0;
#X connect 4 0 1 1;
#X connect 4 0 0 1;
#X restore 155 126 pd ap~;
#N canvas 0 22 450 300 ap~ 0;
#X obj 127 160 rpole~;
#X obj 127 135 rzero_rev~;
#X obj 127 92 inlet~;
#X obj 127 185 outlet~;
#X obj 204 92 inlet~;
#X connect 0 0 3 0;
#X connect 1 0 0 0;
#X connect 2 0 1 0;
#X connect 4 0 1 1;
#X connect 4 0 0 1;
#X restore 155 156 pd ap~;
#N canvas 0 22 450 300 ap~ 0;
#X obj 127 160 rpole~;
#X obj 127 135 rzero_rev~;
#X obj 127 92 inlet~;
#X obj 127 185 outlet~;
#X obj 204 92 inlet~;
#X connect 0 0 3 0;
#X connect 1 0 0 0;
#X connect 2 0 1 0;
#X connect 4 0 1 1;
#X connect 4 0 0 1;
#X restore 155 186 pd ap~;
#N canvas 0 22 450 300 ap~ 0;
#X obj 127 160 rpole~;
#X obj 127 135 rzero_rev~;
#X obj 127 92 inlet~;
#X obj 127 185 outlet~;
#X obj 204 92 inlet~;
#X connect 0 0 3 0;
#X connect 1 0 0 0;
#X connect 2 0 1 0;
#X connect 4 0 1 1;
#X connect 4 0 0 1;
#X restore 155 216 pd ap~;
#N canvas 0 22 450 300 ap~ 0;
#X obj 127 160 rpole~;
#X obj 127 135 rzero_rev~;
#X obj 127 92 inlet~;
#X obj 127 185 outlet~;
#X obj 204 92 inlet~;
#X connect 0 0 3 0;
#X connect 1 0 0 0;
#X connect 2 0 1 0;
#X connect 4 0 1 1;
#X connect 4 0 0 1;
#X restore 155 246 pd ap~;
#N canvas 0 22 450 300 ap~ 0;
#X obj 127 160 rpole~;
#X obj 127 135 rzero_rev~;
#X obj 127 92 inlet~;
#X obj 127 185 outlet~;
#X obj 204 92 inlet~;
#X connect 0 0 3 0;
#X connect 1 0 0 0;
#X connect 2 0 1 0;
#X connect 4 0 1 1;
#X connect 4 0 0 1;
#X restore 155 276 pd ap~;
#N canvas 0 22 450 300 ap~ 0;
#X obj 127 160 rpole~;
#X obj 127 135 rzero_rev~;
#X obj 127 92 inlet~;
#X obj 127 185 outlet~;
#X obj 204 92 inlet~;
#X connect 0 0 3 0;
#X connect 1 0 0 0;
#X connect 2 0 1 0;
#X connect 4 0 1 1;
#X connect 4 0 0 1;
#X restore 155 306 pd ap~;
#N canvas 0 22 450 300 ap~ 0;
#X obj 127 160 rpole~;
#X obj 127 135 rzero_rev~;
#X obj 127 92 inlet~;
#X obj 127 185 outlet~;
#X obj 204 92 inlet~;
#X connect 0 0 3 0;
#X connect 1 0 0 0;
#X connect 2 0 1 0;
#X connect 4 0 1 1;
#X connect 4 0 0 1;
#X restore 155 336 pd ap~;
#N canvas 0 22 450 300 ap~ 0;
#X obj 127 160 rpole~;
#X obj 127 135 rzero_rev~;
#X obj 127 92 inlet~;
#X obj 127 185 outlet~;
#X obj 204 92 inlet~;
#X connect 0 0 3 0;
#X connect 1 0 0 0;
#X connect 2 0 1 0;
#X connect 4 0 1 1;
#X connect 4 0 0 1;
#X restore 155 366 pd ap~;
#N canvas 0 22 450 300 ap~ 0;
#X obj 127 160 rpole~;
#X obj 127 135 rzero_rev~;
#X obj 127 92 inlet~;
#X obj 127 185 outlet~;
#X obj 204 92 inlet~;
#X connect 0 0 3 0;
#X connect 1 0 0 0;
#X connect 2 0 1 0;
#X connect 4 0 1 1;
#X connect 4 0 0 1;
#X restore 155 396 pd ap~;
#N canvas 0 22 450 300 ap~ 0;
#X obj 127 160 rpole~;
#X obj 127 135 rzero_rev~;
#X obj 127 92 inlet~;
#X obj 127 185 outlet~;
#X obj 204 92 inlet~;
#X connect 0 0 3 0;
#X connect 1 0 0 0;
#X connect 2 0 1 0;
#X connect 4 0 1 1;
#X connect 4 0 0 1;
#X restore 155 426 pd ap~;
#N canvas 0 22 450 300 ap~ 0;
#X obj 127 160 rpole~;
#X obj 127 135 rzero_rev~;
#X obj 127 92 inlet~;
#X obj 127 185 outlet~;
#X obj 204 92 inlet~;
#X connect 0 0 3 0;
#X connect 1 0 0 0;
#X connect 2 0 1 0;
#X connect 4 0 1 1;
#X connect 4 0 0 1;
#X restore 155 456 pd ap~;
#N canvas 0 22 450 300 ap~ 0;
#X obj 127 160 rpole~;
#X obj 127 135 rzero_rev~;
#X obj 127 92 inlet~;
#X obj 127 185 outlet~;
#X obj 204 92 inlet~;
#X connect 0 0 3 0;
#X connect 1 0 0 0;
#X connect 2 0 1 0;
#X connect 4 0 1 1;
#X connect 4 0 0 1;
#X restore 155 486 pd ap~;
#X obj 155 6 inlet~;
#X obj 225 6 inlet~;
#X obj 155 511 outlet~;
#X connect 0 0 1 0;
#X connect 1 0 2 0;
#X connect 2 0 3 0;
#X connect 3 0 4 0;
#X connect 4 0 5 0;
#X connect 5 0 6 0;
#X connect 6 0 7 0;
#X connect 7 0 8 0;
#X connect 8 0 9 0;
#X connect 9 0 10 0;
#X connect 10 0 11 0;
#X connect 11 0 12 0;
#X connect 12 0 13 0;
#X connect 13 0 14 0;
#X connect 14 0 15 0;
#X connect 15 0 18 0;
#X connect 16 0 0 0;
#X connect 17 0 0 1;
#X connect 17 0 1 1;
#X connect 17 0 2 1;
#X connect 17 0 3 1;
#X connect 17 0 4 1;
#X connect 17 0 5 1;
#X connect 17 0 6 1;
#X connect 17 0 7 1;
#X connect 17 0 8 1;
#X connect 17 0 9 1;
#X connect 17 0 10 1;
#X connect 17 0 11 1;
#X connect 17 0 12 1;
#X connect 17 0 13 1;
#X connect 17 0 14 1;
#X connect 17 0 15 1;
#X restore 346 588 pd apset~;
#X obj 406 555 clip~ 0 1;
#X obj 303 684 +~, f 5;
#X obj 126 64 inlet~ audio_l;
#X obj 237 64 inlet~ audio_r;
#X obj 702 148 hsl 128 11 0 1 0 0 empty empty empty -2 -8 0 10 #e4e4e4 #4d4d4d #373737 0 1;
#X obj 524 71 r \$0-timemod, f 13;
#X obj 866 150 hsl 128 11 0 1 0 0 empty empty empty -2 -8 0 10 #e4e4e4 #4d4d4d #373737 0 1;
#X obj 122 840 outlet~ audio_l;
#X obj 228 840 outlet~ audio_r;
#X obj 1038 146 hsl 128 11 0 1 0 0 empty empty empty -2 -8 0 10 #e4e4e4 #4d4d4d #373737 0 1;
#X obj 1032 288 clip 0 1, f 7;
#X obj 1100 288 r \$0-modsum-factor;
#X obj 524 112 + 0;
#X obj 524 141 * 1;
#X obj 1260 141 tgl 25 0 empty empty empty 17 7 0 10 #e4e4e4 #4d4d4d #373737 0 1;
#X obj 1260 288 * -1;
#X obj 1302 288 * 2;
#X obj 1302 317 swap 1;
#X obj 1302 346 -;
#X obj 1132 57 r \$0-mod-amount;
#X obj 641 64 r fx_phaser_freq @hv_param 0 1 0.2;
#X obj 695 178 * 20, f 7;
#X obj 1330 64 r fx_phaser_mod_inv @hv_param 0 1 0 toggle;
#X obj 1132 88 route phaser_mod;
#X obj 929 234 * -1;
#X obj 929 263 + 1;
#X text 687 115 debug: phaser max freq;
#X text 855 115 debug: phaser freq mod, f 24;
#X obj 871 64 r fx_phaser_freq_mod @hv_param 0 1 0.1;
#X text 1027 115 debug: phaser modulation amount;
#X text 1243 115 debug: phaser modulation inversion;
#X obj 617 405 sig~;
#X obj 1039 373 mult2values;
#X obj 871 317 mult2values;
#X obj 664 246 mult2values;
#X obj 680 308 mult2values;
#X obj 705 360 add2values;
#X obj 688 95 loadbang;
#X msg 1351 88 0;
#X msg 958 95 0.1;
#X msg 760 95 0.2;
#X obj 892 466 sig~;
#X obj 303 735 *~;
#X obj 121 735 *~;
#X connect 0 0 1 0;
#X connect 1 0 12 0;
#X connect 4 0 0 0;
#X connect 7 0 59 0;
#X connect 8 0 47 0;
#X connect 9 0 12 1;
#X connect 10 0 13 1;
#X connect 11 0 7 1;
#X connect 12 0 13 0;
#X connect 13 0 14 0;
#X connect 13 0 16 0;
#X connect 14 0 11 1;
#X connect 15 0 17 1;
#X connect 16 0 15 1;
#X connect 17 0 58 0;
#X connect 18 0 7 0;
#X connect 18 0 11 0;
#X connect 19 0 17 0;
#X connect 19 0 15 0;
#X connect 20 0 37 0;
#X connect 21 0 28 0;
#X connect 22 0 40 0;
#X connect 22 0 50 1;
#X connect 25 0 26 0;
#X connect 26 0 48 0;
#X connect 27 0 48 1;
#X connect 28 0 29 0;
#X connect 29 0 50 0;
#X connect 30 0 31 0;
#X connect 30 0 32 0;
#X connect 31 0 28 1;
#X connect 32 0 33 0;
#X connect 33 0 34 0;
#X connect 33 1 34 1;
#X connect 34 0 29 1;
#X connect 35 0 39 0;
#X connect 36 0 20 0;
#X connect 37 0 49 0;
#X connect 37 0 51 1;
#X connect 38 0 30 0;
#X connect 39 0 25 0;
#X connect 40 0 41 0;
#X connect 41 0 49 1;
#X connect 44 0 22 0;
#X connect 47 0 4 0;
#X connect 48 0 57 0;
#X connect 49 0 52 1;
#X connect 50 0 51 0;
#X connect 51 0 52 0;
#X connect 52 0 47 0;
#X connect 53 0 56 0;
#X connect 53 0 55 0;
#X connect 54 0 30 0;
#X connect 55 0 22 0;
#X connect 56 0 20 0;
#X connect 57 0 58 1;
#X connect 57 0 59 1;
#X connect 58 0 24 0;
#X connect 59 0 23 0;
#X restore 391 236 pd phaser;
#X obj 254 104 s~ \$0-timemod~;
#X obj 707 356 add2values;
#X obj 707 384 add2values;
#X obj 707 411 add2values;
#X obj 707 574 f;
#X obj 707 444 add2values;
#X obj 707 478 add2values;
#X obj 964 323 f 0;
#X obj 1023 323 f 0;
#X obj 558 605 s~ \$0-peak_fx;
#X obj 413 605 s~ \$0-peak_orig;
#X obj 705 259 r \$0-mod-amount;
#X obj 705 290 route lp_mod hp_mod bp_mod notch_mod flanger_mod phaser_mod;
#X obj 1028 116 tgl 25 0 empty empty empty 17 7 0 10 #e4e4e4 #4d4d4d #373737 0 1;
#X obj 1060 116 tgl 25 0 empty empty empty 17 7 0 10 #e4e4e4 #4d4d4d #373737 0 1;
#X obj 1092 116 tgl 25 0 empty empty empty 17 7 0 10 #e4e4e4 #4d4d4d #373737 0 1;
#X obj 1124 116 tgl 25 0 empty empty empty 17 7 0 10 #e4e4e4 #4d4d4d #373737 0 1;
#X text 1024 86 debugging amount;
#X obj 635 104 r fx_hp_mod @hv_param 0 1 0;
#X obj 635 134 r fx_bp_mod @hv_param 0 1 0;
#X obj 635 163 r fx_notch_mod @hv_param 0 1 0;
#X msg 859 75 lp_mod \$1;
#X msg 859 104 hp_mod \$1;
#X msg 859 134 bp_mod \$1;
#X msg 859 163 notch_mod \$1;
#X obj 635 191 r fx_flanger_mod @hv_param 0 1 0;
#X msg 859 191 flanger_mod \$1;
#X obj 1156 116 tgl 25 0 empty empty empty 17 7 0 10 #e4e4e4 #4d4d4d #373737 0 1;
#X obj 635 223 r fx_phaser_mod @hv_param 0 1 0;
#X msg 859 223 phaser_mod \$1;
#X obj 1188 116 tgl 25 0 empty empty empty 17 7 0 10 #e4e4e4 #4d4d4d #373737 0 1;
#X obj 1189 33 loadbang;
#X msg 1190 76 0;
#X obj 985 223 s \$0-mod-amount;
#X obj 635 75 r fx_lp_mod @hv_param;
#X connect 0 0 25 0;
#X connect 0 0 16 0;
#X connect 0 0 15 0;
#X connect 0 0 32 0;
#X connect 0 0 24 0;
#X connect 0 0 33 0;
#X connect 1 0 25 1;
#X connect 1 0 16 1;
#X connect 1 0 15 1;
#X connect 1 0 32 1;
#X connect 1 0 24 1;
#X connect 1 0 33 1;
#X connect 2 0 34 0;
#X connect 3 0 6 0;
#X connect 9 0 7 0;
#X connect 10 0 9 0;
#X connect 11 0 14 0;
#X connect 12 0 8 0;
#X connect 13 0 12 0;
#X connect 14 0 29 0;
#X connect 15 0 4 0;
#X connect 15 1 5 0;
#X connect 16 0 4 0;
#X connect 16 1 5 0;
#X connect 17 0 35 0;
#X connect 18 0 35 1;
#X connect 19 0 36 1;
#X connect 20 0 37 1;
#X connect 21 0 22 0;
#X connect 21 1 22 1;
#X connect 22 0 38 0;
#X connect 24 0 4 0;
#X connect 24 1 5 0;
#X connect 25 0 4 0;
#X connect 25 1 5 0;
#X connect 26 0 14 0;
#X connect 27 0 9 0;
#X connect 28 0 12 0;
#X connect 30 0 10 0;
#X connect 31 0 13 0;
#X connect 32 0 4 0;
#X connect 32 1 5 0;
#X connect 33 0 4 0;
#X connect 33 1 5 0;
#X connect 35 0 36 0;
#X connect 36 0 37 0;
#X connect 37 0 39 0;
#X connect 38 0 23 0;
#X connect 39 0 40 0;
#X connect 40 0 21 0;
#X connect 41 0 39 1;
#X connect 42 0 40 1;
#X connect 45 0 46 0;
#X connect 46 0 17 0;
#X connect 46 1 18 0;
#X connect 46 2 19 0;
#X connect 46 3 20 0;
#X connect 46 4 41 0;
#X connect 46 5 42 0;
#X connect 47 0 55 0;
#X connect 48 0 56 0;
#X connect 49 0 57 0;
#X connect 50 0 58 0;
#X connect 52 0 56 0;
#X connect 53 0 57 0;
#X connect 54 0 58 0;
#X connect 55 0 67 0;
#X connect 56 0 67 0;
#X connect 57 0 67 0;
#X connect 58 0 67 0;
#X connect 59 0 60 0;
#X connect 60 0 67 0;
#X connect 61 0 60 0;
#X connect 62 0 63 0;
#X connect 63 0 67 0;
#X connect 64 0 63 0;
#X connect 65 0 66 0;
#X connect 66 0 47 0;
#X connect 66 0 48 0;
#X connect 66 0 49 0;
#X connect 66 0 50 0;
#X connect 66 0 61 0;
#X connect 66 0 64 0;
#X connect 68 0 55 0;
