#N canvas 827 239 527 327 12;
#X obj 74 62 inlet A;
#X obj 131 62 inlet B;
#X obj 131 165 t b f;
#X obj 74 262 outlet sum;
#X obj 218 62 loadbang;
#X msg 218 91 1;
#X obj 74 195 f;
#X obj 74 224 *;
#X connect 0 0 6 0;
#X connect 1 0 2 0;
#X connect 2 0 6 0;
#X connect 2 1 7 1;
#X connect 4 0 5 0;
#X connect 5 0 6 1;
#X connect 5 0 7 1;
#X connect 6 0 7 0;
#X connect 7 0 3 0;
