#N canvas 827 239 527 327 12;
#X obj 1251 970 dac~;
#X obj 16 28 r __hv_dpf_bpm;
#X obj 1352 102 hsl 128 17 0 1 0 0 empty empty empty -2 -8 0 10 #e4e4e4 #4d4d4d #373737 0 1;
#X obj 143 61 hsl 128 17 40 480 0 0 empty empty empty -2 -8 0 10 #e4e4e4 #4d4d4d #373737 0 1;
#X obj 1201 28 adc~;
#X obj 297 58 loadbang;
#X obj 1251 128 sig~ 1;
#X obj 1251 179 -~;
#X obj 1226 458 *~;
#X obj 1268 458 *~;
#X obj 1072 458 *~;
#X obj 1114 458 *~;
#X obj 820 171 change;
#X obj 1260 28 r cross_trigger @hv_param 0 1 0;
#X obj 393 128 hsl 128 17 0 9 0 0 empty empty empty -2 -8 0 10 #e4e4e4 #4d4d4d #373737 0 1;
#X obj 16 58 change;
#N canvas 0 50 450 300 repeater 0;
#X obj 236 105 inlet~ audio_l;
#X obj 334 105 inlet~ audio_r;
#X obj 697 105 inlet bpm;
#X obj 939 105 inlet beat_repeat_count;
#X obj 770 105 inlet beat_repeat_triplet;
#X obj 439 105 inlet repeat_onoff;
#X obj 306 849 outlet~ audio_l;
#X obj 424 849 outlet~ audio_r;
#X obj 556 179 loadbang;
#X msg 569 352 stop;
#X obj 681 352 / 1;
#X obj 533 352 bng 25 250 50 0 empty empty empty 17 7 0 10 #e4e4e4 #4d4d4d #373737;
#X obj 637 396 metro 500;
#N canvas 0 50 450 300 buffer_stutter 0;
#X obj 442 671 *~;
#X obj 483 669 *~;
#X obj 439 478 tgl 15 0 empty empty original_switcher 17 7 0 10 #fc0400 #000000 #000000 0 1;
#X obj 95 541 lop~ 6000;
#X obj 187 663 *~;
#X obj 235 663 *~;
#X obj 344 560 line;
#X obj 348 588 swap 1;
#X obj 349 613 -;
#X floatatom 392 641 5 0 0 0 - - - 0;
#X msg 345 534 \$1 40;
#X obj 99 459 tabplay~ \$0-buffer-l;
#X obj 239 458 tabwrite~ \$0-buffer-l;
#X obj 469 532 table \$0-buffer-l 440960;
#X obj 255 486 tabwrite~ \$0-buffer-r;
#X obj 115 487 tabplay~ \$0-buffer-r;
#X obj 187 541 lop~ 6000;
#X obj 486 560 table \$0-buffer-r 440960;
#X obj 373 206 f;
#X msg 371 172 0;
#X obj 246 100 bng 15 250 50 0 empty empty empty 17 7 0 10 #fcfcfc #000000 #000000;
#X obj 263 131 spigot;
#X obj 382 71 tgl 15 0 empty empty start/stop 17 7 0 10 #fc0400 #000000 #000000 0 1;
#X obj 331 261 select 1 2;
#X obj 359 315 bng 15 250 50 0 empty empty audio_swtch 17 7 0 10 #fcfcfc #000000 #000000;
#X obj 267 432 bng 15 250 50 0 empty empty rec_strt 17 7 0 10 #fcfcfc #000000 #000000;
#X obj 412 207 + 1;
#X obj 368 352 tgl 15 0 empty empty audio_switcher 17 7 0 10 #fcfcfc #000000 #000000 0 1;
#X obj 318 381 spigot;
#X obj 116 432 bng 15 250 50 0 empty empty replay 17 7 0 10 #fcfcfc #000000 #000000;
#X floatatom 373 229 5 0 0 0 - - - 0;
#X obj 460 104 swap 1;
#X obj 461 129 -;
#X obj 468 161 spigot;
#X obj 483 239 f;
#X msg 497 191 0;
#X obj 577 239 + 1;
#X floatatom 570 316 10 0 0 0 - - - 12;
#X obj 470 316 bng 15 250 50 0 empty empty audio_orig 17 7 0 10 #fcfcfc #000000 #000000;
#X obj 439 422 swap 1;
#X obj 440 447 -;
#X obj 69 50 inlet~;
#X obj 119 51 inlet~;
#X obj 155 765 outlet~;
#X obj 248 766 outlet~;
#X obj 177 54 inlet beat;
#X obj 412 36 inlet toggle_stutter;
#X obj 472 281 select 1;
#X msg 590 114 1;
#X obj 590 50 loadbang;
#X msg 619 114 0;
#X msg 693 341 1000;
#X obj 693 315 select 1;
#X obj 693 290 > 10000;
#X text 678 260 overflow reduction;
#X connect 0 0 43 0;
#X connect 1 0 44 0;
#X connect 2 0 10 0;
#X connect 3 0 4 0;
#X connect 4 0 43 0;
#X connect 5 0 44 0;
#X connect 6 0 7 0;
#X connect 6 0 0 1;
#X connect 6 0 1 1;
#X connect 7 0 8 0;
#X connect 7 1 8 1;
#X connect 8 0 9 0;
#X connect 8 0 5 1;
#X connect 8 0 4 1;
#X connect 10 0 6 0;
#X connect 11 0 3 0;
#X connect 15 0 16 0;
#X connect 16 0 5 0;
#X connect 18 0 23 0;
#X connect 18 0 26 0;
#X connect 18 0 30 0;
#X connect 19 0 18 0;
#X connect 20 0 21 0;
#X connect 20 0 33 0;
#X connect 21 0 18 0;
#X connect 21 0 28 0;
#X connect 22 0 21 1;
#X connect 22 0 19 0;
#X connect 22 0 31 0;
#X connect 23 0 25 0;
#X connect 23 1 24 0;
#X connect 24 0 27 0;
#X connect 25 0 12 0;
#X connect 25 0 14 0;
#X connect 26 0 18 1;
#X connect 27 0 28 1;
#X connect 27 0 39 0;
#X connect 28 0 29 0;
#X connect 29 0 11 0;
#X connect 29 0 15 0;
#X connect 31 0 32 0;
#X connect 31 1 32 1;
#X connect 32 0 33 1;
#X connect 32 0 35 0;
#X connect 33 0 34 0;
#X connect 34 0 36 0;
#X connect 34 0 37 0;
#X connect 34 0 47 0;
#X connect 34 0 53 0;
#X connect 35 0 34 0;
#X connect 36 0 34 1;
#X connect 38 0 27 0;
#X connect 39 0 40 0;
#X connect 39 1 40 1;
#X connect 40 0 2 0;
#X connect 41 0 12 0;
#X connect 41 0 0 0;
#X connect 42 0 14 0;
#X connect 42 0 1 0;
#X connect 45 0 20 0;
#X connect 46 0 22 0;
#X connect 47 0 38 0;
#X connect 48 0 36 1;
#X connect 48 0 26 1;
#X connect 49 0 48 0;
#X connect 49 0 50 0;
#X connect 50 0 27 0;
#X connect 50 0 22 0;
#X connect 51 0 34 1;
#X connect 52 0 51 0;
#X connect 53 0 52 0;
#X restore 306 803 pd buffer_stutter;
#X obj 440 429 tgl 25 1 empty empty empty 17 7 0 10 #e4e4e4 #4d4d4d #373737 0 1;
#X obj 378 580 f;
#X msg 376 546 0;
#X obj 417 581 + 1;
#X obj 424 494 select 1;
#X obj 378 750 bng 25 250 50 0 empty empty empty 17 7 0 10 #e4e4e4 #4d4d4d #373737;
#X floatatom 378 681 5 0 0 0 - - - 12;
#X obj 378 714 select 0;
#X obj 378 352 loadbang;
#X msg 379 398 0;
#X obj 637 211 change;
#X obj 637 308 swap 937.5;
#X obj 770 179 select 0 1;
#X msg 770 211 937.5;
#X msg 826 211 625;
#X obj 794 143 tgl 25 0 empty empty empty 17 7 0 10 #e4e4e4 #4d4d4d #373737 0 1;
#X obj 770 257 t b f;
#X obj 566 105 inlet start;
#X obj 436 242 &&;
#X obj 439 195 t b f;
#X obj 533 428 t f f;
#X obj 378 646 mod 128;
#X obj 378 612 int;
#X obj 441 152 f;
#X obj 545 31 tgl 25 0 empty empty empty 17 7 0 10 #e4e4e4 #4d4d4d #373737 0 1;
#X obj 537 646 s \$0-bang_counter;
#X obj 669 646 s \$0-bang_counter_start;
#X obj 939 325 int;
#X obj 939 268 pow 2;
#X obj 939 232 swap 2;
#X obj 939 204 int;
#X obj 960 133 loadbang;
#X obj 960 170 6;
#X obj 153 307 * -1;
#X obj 153 336 + 1;
#X obj 153 379 sig~;
#X obj 289 400 sig~;
#X obj 134 612 *~;
#X obj 176 612 *~;
#X obj 279 494 *~;
#X obj 334 494 *~;
#X obj 153 408 lop~ 10;
#X obj 306 429 lop~ 10;
#X connect 0 0 53 0;
#X connect 0 0 51 0;
#X connect 1 0 54 0;
#X connect 1 0 52 0;
#X connect 2 0 24 0;
#X connect 3 0 44 0;
#X connect 4 0 26 0;
#X connect 5 0 37 0;
#X connect 8 0 12 0;
#X connect 9 0 12 0;
#X connect 10 0 12 1;
#X connect 11 0 12 0;
#X connect 12 0 15 0;
#X connect 13 0 6 0;
#X connect 13 1 7 0;
#X connect 14 0 34 0;
#X connect 15 0 17 0;
#X connect 15 0 36 0;
#X connect 16 0 15 0;
#X connect 17 0 15 1;
#X connect 18 0 16 0;
#X connect 18 0 40 0;
#X connect 19 0 13 2;
#X connect 20 0 21 0;
#X connect 21 0 19 0;
#X connect 22 0 23 0;
#X connect 23 0 14 0;
#X connect 24 0 25 0;
#X connect 25 0 10 0;
#X connect 25 1 10 1;
#X connect 26 0 27 0;
#X connect 26 1 28 0;
#X connect 27 0 30 0;
#X connect 28 0 30 0;
#X connect 29 0 26 0;
#X connect 30 0 25 0;
#X connect 30 1 25 1;
#X connect 31 0 32 0;
#X connect 32 0 14 0;
#X connect 33 0 32 0;
#X connect 33 1 32 1;
#X connect 34 0 18 0;
#X connect 34 1 13 3;
#X connect 35 0 20 0;
#X connect 36 0 35 0;
#X connect 36 0 39 0;
#X connect 37 0 33 0;
#X connect 37 0 50 0;
#X connect 37 0 47 0;
#X connect 38 0 32 0;
#X connect 41 0 35 1;
#X connect 42 0 41 0;
#X connect 43 0 42 0;
#X connect 43 1 42 1;
#X connect 44 0 43 0;
#X connect 45 0 46 0;
#X connect 46 0 44 0;
#X connect 47 0 48 0;
#X connect 48 0 49 0;
#X connect 49 0 55 0;
#X connect 50 0 56 0;
#X connect 51 0 6 0;
#X connect 52 0 7 0;
#X connect 53 0 13 0;
#X connect 54 0 13 1;
#X connect 55 0 51 1;
#X connect 55 0 52 1;
#X connect 56 0 54 1;
#X connect 56 0 53 1;
#X restore 169 332 pd repeater;
#X obj 609 179 tgl 25 0 empty empty empty 17 7 0 10 #e4e4e4 #4d4d4d #373737 0 1;
#X obj 1069 398 lop~ 10;
#X obj 1251 208 lop~ 10;
#X obj 820 145 > 0.04;
#N canvas 0 50 450 300 buildup_ramp 0;
#X obj 323 53 inlet bpm;
#X obj 367 241 / 1;
#X obj 323 114 change;
#X obj 42 53 inlet start;
#X obj 625 53 inlet ramp_style;
#X obj 470 53 inlet ramp_beats;
#X obj 323 197 swap 60000;
#X msg 344 157 125;
#X obj 42 379 f;
#X msg 42 489 0 \, 1 \$1 1;
#X obj 146 53 inlet ramp_retrigger;
#X obj 42 452 f;
#X obj 42 415 spigot;
#X obj 146 162 tgl 25 0 empty empty empty 17 7 0 10 #e4e4e4 #4d4d4d #373737 0 1;
#X obj 71 1193 outlet~ signal;
#X obj 774 53 inlet ramp_amp;
#X obj 774 162 clip -1 1;
#X obj 625 192 s \$0-style;
#X floatatom 657 113 3 0 0 0 - - - 16;
#X obj 656 146 int;
#X obj 774 241 s \$0-amplitude;
#X floatatom 908 53 10 0 0 0 - - - 16;
#X obj 708 80 loadbang;
#X msg 803 114 1;
#X obj 470 114 int;
#X obj 367 341 f;
#X obj 371 277 f;
#X obj 371 306 * 1;
#X obj 421 252 t b f;
#X obj 187 94 loadbang;
#X msg 189 146 1;
#X obj 189 437 f;
#X msg 189 474 0 \, 1 \$1 1;
#X obj 264 474 del \$1;
#X obj 42 760 == 0;
#X obj 42 791 *;
#X obj 42 728 r \$0-style;
#X obj 125 791 *;
#X obj 125 728 r \$0-style;
#X obj 202 791 *;
#X obj 202 728 r \$0-style;
#X obj 279 791 *;
#X obj 279 728 r \$0-style;
#X obj 185 241 r \$0-start;
#X obj 272 571 * 2;
#X obj 272 629 abs;
#X obj 125 760 == 1;
#X obj 202 760 == 2;
#X obj 272 600 - 1;
#X obj 432 525 r \$0-amplitude;
#X obj 279 760 == 3;
#X obj 212 1193 outlet msg;
#X obj 774 197 f;
#X obj 517 577 < 0;
#X obj 486 638 + 1;
#X obj 486 667 *;
#X obj 445 746 +;
#X obj 471 577 > 0;
#X obj 432 667 *;
#X obj 63 885 f;
#X obj 42 833 change;
#X obj 125 833 change;
#X obj 202 833 change;
#X obj 279 833 change;
#X obj 189 518 line 0;
#X obj 42 533 line 0;
#X obj 69 94 s \$0-start;
#X obj 71 1042 sig~;
#X obj 171 306 bng 25 250 50 0 empty empty empty 17 7 0 10 #e4e4e4 #4d4d4d #373737;
#X obj 264 503 s \$0-cycle_start;
#X obj 331 1082 r \$0-cycle_start;
#X obj 311 1049 r \$0-start;
#X obj 311 1193 outlet buildup-beginning;
#X obj 272 658 * -1;
#X obj 272 687 + 1;
#X connect 0 0 2 0;
#X connect 1 0 26 0;
#X connect 2 0 6 0;
#X connect 3 0 8 0;
#X connect 3 0 66 0;
#X connect 4 0 17 0;
#X connect 5 0 24 0;
#X connect 6 0 1 0;
#X connect 6 1 1 1;
#X connect 7 0 6 0;
#X connect 8 0 12 0;
#X connect 9 0 65 0;
#X connect 10 0 13 0;
#X connect 11 0 9 0;
#X connect 12 0 11 0;
#X connect 13 0 12 1;
#X connect 15 0 16 0;
#X connect 16 0 52 0;
#X connect 18 0 19 0;
#X connect 19 0 17 0;
#X connect 21 0 16 0;
#X connect 22 0 23 0;
#X connect 22 0 18 0;
#X connect 23 0 16 0;
#X connect 24 0 28 0;
#X connect 25 0 8 0;
#X connect 25 0 31 0;
#X connect 26 0 27 0;
#X connect 27 0 25 0;
#X connect 28 0 26 0;
#X connect 28 1 27 1;
#X connect 29 0 30 0;
#X connect 29 0 7 0;
#X connect 30 0 13 0;
#X connect 31 0 32 0;
#X connect 31 0 33 0;
#X connect 32 0 64 0;
#X connect 33 0 31 0;
#X connect 33 0 69 0;
#X connect 34 0 35 1;
#X connect 35 0 60 0;
#X connect 36 0 34 0;
#X connect 37 0 61 0;
#X connect 38 0 46 0;
#X connect 39 0 62 0;
#X connect 40 0 47 0;
#X connect 41 0 63 0;
#X connect 42 0 50 0;
#X connect 43 0 68 0;
#X connect 44 0 48 0;
#X connect 45 0 73 0;
#X connect 46 0 37 1;
#X connect 47 0 39 1;
#X connect 48 0 45 0;
#X connect 49 0 53 0;
#X connect 49 0 54 0;
#X connect 49 0 57 0;
#X connect 49 0 58 0;
#X connect 50 0 41 1;
#X connect 52 0 20 0;
#X connect 53 0 55 1;
#X connect 54 0 55 0;
#X connect 55 0 56 1;
#X connect 56 0 41 0;
#X connect 57 0 58 1;
#X connect 58 0 56 0;
#X connect 59 0 51 0;
#X connect 59 0 67 0;
#X connect 60 0 59 0;
#X connect 61 0 59 0;
#X connect 62 0 59 0;
#X connect 63 0 59 0;
#X connect 64 0 44 0;
#X connect 64 0 37 0;
#X connect 65 0 35 0;
#X connect 67 0 14 0;
#X connect 68 0 31 0;
#X connect 70 0 72 0;
#X connect 71 0 72 0;
#X connect 73 0 74 0;
#X connect 74 0 39 0;
#X restore 600 327 pd buildup_ramp;
#X obj 617 258 tgl 25 0 empty empty empty 17 7 0 10 #e4e4e4 #4d4d4d #373737 0 1;
#X floatatom 660 258 5 0 0 0 - - - 12;
#X floatatom 704 258 5 0 0 0 - - - 12;
#X obj 804 288 vsl 17 128 -1 1 0 0 empty empty empty 0 -9 0 10 #e4e4e4 #4d4d4d #373737 0 1;
#X obj 1374 789 *~ 1;
#X obj 1417 789 *~ 1;
#X obj 1438 694 tgl 25 0 empty empty empty 17 7 0 10 #e4e4e4 #4d4d4d #373737 0 1;
#X text 1433 661 debug: orig OnOff;
#X obj 88 245 tgl 25 0 empty empty empty 17 7 0 10 #e4e4e4 #4d4d4d #373737 0 1;
#X obj 517 560 sig~ 0;
#X obj 428 638 *~;
#X obj 552 638 *~;
#X obj 517 594 lop~ 10;
#X obj 1341 137 s \$0-crossfader;
#X obj 479 523 r \$0-crossfader;
#X obj 428 492 catch~ \$0-bus1_l;
#X obj 548 492 catch~ \$0-bus1_r;
#X obj 153 633 throw~ \$0-bus1_l;
#X obj 272 633 throw~ \$0-bus1_r;
#X obj 159 518 buildup_noise 7000 5;
#X obj 207 568 tgl 25 0 empty empty empty 17 7 0 10 #e4e4e4 #4d4d4d #373737 0 1;
#X obj 274 581 *~ 0;
#X obj 953 58 r buildup_amplitude @hv_param -1 1 1;
#X obj 702 93 r buildup_length @hv_param 1 32 16;
#X obj 1431 580 loadbang;
#X msg 1431 609 1;
#X msg 855 270 1;
#X obj 853 245 loadbang;
#X msg 80 204 1;
#X obj 78 179 loadbang;
#X obj 609 137 int;
#X obj 660 93 int;
#N canvas 0 50 450 300 fx_chain_01 0;
#X obj 59 75 inlet~ audio_l;
#X obj 157 75 inlet~ audio_r;
#N canvas 0 50 450 300 bp2 0;
#X obj 420 143 hsl 128 11 0 10000 0 0 empty empty empty -2 -8 0 10 #e4e4e4 #4d4d4d #373737 0 1;
#X obj 414 314 * 7000, f 7;
#X obj 38 350 hv.filters/bandpass2 10 5, f 23;
#X obj 219 350 hv.filters/bandpass2 10 5, f 23;
#X obj 233 102 r \$0-timemod, f 13;
#X obj 593 143 hsl 128 11 0 4 0 0 empty empty empty -2 -8 0 10 #e4e4e4 #4d4d4d #373737 0 1;
#X text 577 112 debug: bp max Q, f 16;
#X text 409 112 debug: bp max freq;
#X obj 627 350 + 1;
#X obj 44 61 inlet~ audio_l, f 13;
#X obj 142 61 inlet~ audio_r, f 13;
#X obj 38 602 outlet~ audio_l;
#X obj 144 602 outlet~ audio_r;
#X obj 760 143 hsl 128 11 0 1 0 0 empty empty empty -2 -8 0 10 #e4e4e4 #4d4d4d #373737 0 1;
#X text 749 112 debug: bp modulation amount;
#X obj 754 314 clip 0 1, f 7;
#X obj 822 314 r \$0-modsum-factor;
#X obj 233 143 + 0;
#X obj 233 172 * 1;
#X obj 982 138 tgl 25 0 empty empty empty 17 7 0 10 #e4e4e4 #4d4d4d #373737 0 1;
#X text 965 112 debug: hp modulation inversion;
#X obj 982 314 * -1;
#X obj 1024 314 * 2;
#X obj 1024 343 swap 1;
#X obj 1024 372 -;
#X obj 800 61 r \$0-mod-amount;
#X obj 800 90 route bp_mod;
#X obj 1037 61 r fx_bp_mod_inv @hv_param 0 1 0 toggle;
#X obj 417 90 loadbang;
#X msg 979 96 0;
#X obj 754 372 mult2values;
#X obj 627 432 mult2values;
#X obj 627 457 sig~;
#X obj 600 489 lop~ 100;
#X obj 219 514 *~;
#X obj 38 514 *~;
#X obj 374 61 r fx_bp_freq @hv_param 30 10000 3000;
#X msg 493 90 3000;
#X obj 233 238 transpose_function_simple 30 3000 2;
#X obj 608 38 r fx_bp_q @hv_param 0 6 0.1;
#X msg 614 96 1;
#X obj 609 203 / 4;
#X obj 627 316 * 0.5, f 8;
#X connect 0 0 1 0;
#X connect 0 0 38 2;
#X connect 2 0 35 0;
#X connect 3 0 34 0;
#X connect 4 0 17 0;
#X connect 5 0 3 2;
#X connect 5 0 2 2;
#X connect 5 0 41 0;
#X connect 8 0 31 0;
#X connect 9 0 2 0;
#X connect 10 0 3 0;
#X connect 13 0 15 0;
#X connect 15 0 30 0;
#X connect 16 0 30 1;
#X connect 17 0 18 0;
#X connect 18 0 38 0;
#X connect 19 0 21 0;
#X connect 19 0 22 0;
#X connect 21 0 17 1;
#X connect 22 0 23 0;
#X connect 23 0 24 0;
#X connect 23 1 24 1;
#X connect 24 0 18 1;
#X connect 25 0 26 0;
#X connect 26 0 13 0;
#X connect 27 0 19 0;
#X connect 28 0 37 0;
#X connect 28 0 40 0;
#X connect 28 0 29 0;
#X connect 29 0 19 0;
#X connect 30 0 31 1;
#X connect 31 0 32 0;
#X connect 32 0 33 0;
#X connect 33 0 34 1;
#X connect 33 0 35 1;
#X connect 34 0 12 0;
#X connect 35 0 11 0;
#X connect 36 0 0 0;
#X connect 37 0 0 0;
#X connect 38 0 3 1;
#X connect 38 0 2 1;
#X connect 39 0 5 0;
#X connect 40 0 5 0;
#X connect 41 0 42 0;
#X connect 42 0 8 0;
#X restore 175 236 pd bp2;
#N canvas 0 50 450 300 hp2 0;
#X obj 319 299 cnv 15 248 82 empty empty empty 20 12 0 14 #b7b7b7 #373737 0;
#X obj 414 138 hsl 128 11 20 1000 1 0 empty empty empty -2 -8 0 10 #e4e4e4 #4d4d4d #373737 0 1;
#X obj 253 61 r \$0-timemod, f 13;
#X obj 583 142 hsl 128 11 0.1 4 1 0 empty empty empty -2 -8 0 10 #e4e4e4 #4d4d4d #373737 0 1;
#X obj 44 61 inlet~ audio_l, f 13;
#X obj 142 61 inlet~ audio_r, f 13;
#X obj 40 606 outlet~ audio_l;
#X obj 146 606 outlet~ audio_r;
#X obj 760 143 hsl 128 11 0 1 0 0 empty empty empty -2 -8 0 10 #e4e4e4 #4d4d4d #373737 0 1;
#X obj 758 263 clip 0 1, f 7;
#X obj 824 263 r \$0-modsum-factor;
#X obj 975 138 tgl 25 0 empty empty empty 17 7 0 10 #e4e4e4 #4d4d4d #373737 0 1;
#X text 958 112 debug: hp modulation inversion;
#X obj 975 263 * -1;
#X obj 236 173 + 0;
#X obj 236 202 * 1;
#X obj 1017 263 * 2;
#X obj 1017 292 swap 1;
#X obj 1017 321 -;
#X text 749 112 debug: hp modulation amount;
#X text 577 112 debug: hp max Q, f 16;
#X text 409 112 debug: hp max freq;
#X obj 839 90 route hp_mod;
#X obj 839 61 r \$0-mod-amount;
#X obj 631 299 + 1;
#X obj 432 90 loadbang;
#X msg 994 96 0;
#X obj 758 331 mult2values;
#X obj 631 399 mult2values;
#X obj 631 425 sig~;
#X obj 604 457 lop~ 100;
#X obj 222 524 *~;
#X obj 41 524 *~;
#X obj 488 265 f;
#X msg 629 96 1;
#X msg 270 96 3000;
#X obj 1076 61 r hp_mod_inv @hv_param 0 1 0 toggle;
#X obj 41 399 hv.filters/highpass 50 1, f 23;
#X obj 222 399 hv.filters/highpass 50 1, f 23;
#X obj 392 329 * 1, f 7;
#X obj 333 321 * 5;
#X obj 333 350 clip 0 1;
#X obj 617 61 r hp_q @hv_param 0.1 8 1;
#X text 325 298 reduces popping at beginning of build-up;
#X obj 378 61 r hp_freq @hv_param 20 10000 3000;
#X obj 631 265 * -0.6;
#X obj 618 202 / 4;
#X obj 222 263 transpose_function_simple 100 2000 2;
#X connect 1 0 47 2;
#X connect 2 0 14 0;
#X connect 3 0 33 0;
#X connect 3 0 46 0;
#X connect 4 0 37 0;
#X connect 5 0 38 0;
#X connect 8 0 9 0;
#X connect 9 0 27 0;
#X connect 10 0 27 1;
#X connect 11 0 13 0;
#X connect 11 0 16 0;
#X connect 13 0 14 1;
#X connect 14 0 15 0;
#X connect 15 0 40 0;
#X connect 15 0 47 0;
#X connect 16 0 17 0;
#X connect 17 0 18 0;
#X connect 17 1 18 1;
#X connect 18 0 15 1;
#X connect 22 0 8 0;
#X connect 23 0 22 0;
#X connect 24 0 28 0;
#X connect 25 0 35 0;
#X connect 25 0 34 0;
#X connect 25 0 26 0;
#X connect 26 0 11 0;
#X connect 27 0 28 1;
#X connect 28 0 29 0;
#X connect 29 0 30 0;
#X connect 30 0 31 1;
#X connect 30 0 32 1;
#X connect 31 0 7 0;
#X connect 32 0 6 0;
#X connect 33 0 37 2;
#X connect 33 0 38 2;
#X connect 33 0 39 1;
#X connect 34 0 3 0;
#X connect 35 0 1 0;
#X connect 36 0 11 0;
#X connect 37 0 32 0;
#X connect 38 0 31 0;
#X connect 39 0 37 2;
#X connect 39 0 38 2;
#X connect 40 0 41 0;
#X connect 41 0 39 0;
#X connect 42 0 3 0;
#X connect 44 0 1 0;
#X connect 45 0 24 0;
#X connect 46 0 45 0;
#X connect 47 0 37 1;
#X connect 47 0 38 1;
#X restore 111 236 pd hp2;
#X obj 707 323 f 0;
#X obj 769 323 f 0;
#X obj 833 323 f 0;
#X obj 898 323 f 0;
#X obj 707 540 swap 1;
#X obj 707 571 /;
#X obj 707 782 s \$0-modsum-factor;
#N canvas 0 50 450 300 notch 0;
#X obj 422 120 hsl 128 11 30 10000 0 0 empty empty empty -2 -8 0 10 #e4e4e4 #4d4d4d #373737 0 1;
#X obj 231 77 r \$0-timemod, f 13;
#X obj 594 118 hsl 128 11 0.6 1 0 0 empty empty empty -2 -8 0 10 #e4e4e4 #4d4d4d #373737 0 1;
#X obj 42 36 inlet~ audio_l, f 13;
#X obj 140 36 inlet~ audio_r, f 13;
#X obj 36 548 outlet~ audio_l;
#X obj 142 548 outlet~ audio_r;
#X obj 758 118 hsl 128 11 0 1 0 0 empty empty empty -2 -8 0 10 #e4e4e4 #4d4d4d #373737 0 1;
#X obj 752 260 clip 0 1, f 7;
#X obj 820 260 r \$0-modsum-factor;
#X obj 231 118 + 0;
#X obj 231 147 * 1;
#X obj 980 113 tgl 25 0 empty empty empty 17 7 0 10 #e4e4e4 #4d4d4d #373737 0 1;
#X obj 980 260 * -1;
#X obj 1022 260 * 2;
#X obj 1022 289 swap 1;
#X obj 1022 318 -;
#X obj 237 361 hv.filters/notch 10 5;
#X obj 42 361 hv.filters/notch 10 5;
#X text 407 87 debug: notch max freq;
#X text 575 87 debug: notch max Q, f 19;
#X text 747 87 debug: notch modulation amount;
#X text 963 87 debug: notch modulation inversion;
#X obj 813 36 r \$0-mod-amount;
#X obj 1050 36 r fx_notch_mod_inv @hv_param 0 1 0 toggle;
#X obj 813 65 route notch_mod;
#X obj 418 59 loadbang;
#X msg 980 65 0;
#X obj 752 339 mult2values;
#X obj 625 392 mult2values;
#X obj 615 422 sig~;
#X obj 588 454 lop~ 100;
#X obj 185 506 *~;
#X obj 29 494 *~;
#X obj 326 36 r fx_notch_freq @hv_param 30 10000 3000;
#X obj 231 227 transpose_function_simple 30 3000 2;
#X msg 490 59 3000;
#X obj 625 296 + 1;
#X obj 632 165 swap 1;
#X obj 632 194 /;
#X obj 632 223 * -0.05;
#X msg 615 65 0.6;
#X obj 579 262 * 0.5;
#X obj 591 36 r fx_notch_q @hv_param 0.3 1 0.4;
#X connect 0 0 35 2;
#X connect 1 0 10 0;
#X connect 2 0 38 0;
#X connect 2 0 42 0;
#X connect 3 0 18 0;
#X connect 4 0 17 0;
#X connect 7 0 8 0;
#X connect 8 0 28 0;
#X connect 9 0 28 1;
#X connect 10 0 11 0;
#X connect 11 0 35 0;
#X connect 12 0 13 0;
#X connect 12 0 14 0;
#X connect 13 0 10 1;
#X connect 14 0 15 0;
#X connect 15 0 16 0;
#X connect 15 1 16 1;
#X connect 16 0 11 1;
#X connect 17 0 32 0;
#X connect 18 0 33 0;
#X connect 23 0 25 0;
#X connect 24 0 12 0;
#X connect 25 0 7 0;
#X connect 26 0 36 0;
#X connect 26 0 41 0;
#X connect 26 0 27 0;
#X connect 27 0 12 0;
#X connect 28 0 29 1;
#X connect 29 0 30 0;
#X connect 30 0 31 0;
#X connect 31 0 33 1;
#X connect 31 0 32 1;
#X connect 32 0 6 0;
#X connect 33 0 5 0;
#X connect 34 0 0 0;
#X connect 35 0 17 1;
#X connect 35 0 18 1;
#X connect 36 0 0 0;
#X connect 37 0 29 0;
#X connect 38 0 39 0;
#X connect 38 1 39 1;
#X connect 39 0 40 0;
#X connect 40 0 37 0;
#X connect 41 0 2 0;
#X connect 42 0 17 2;
#X connect 42 0 18 2;
#X connect 43 0 2 0;
#X restore 236 236 pd notch;
#N canvas 0 50 450 300 lp2 0;
#X obj 421 133 hsl 128 13 40 7000 0 0 empty empty empty -2 -8 0 10 #e4e4e4 #4d4d4d #373737 0 1;
#X obj 239 87 r \$0-timemod;
#X obj 629 138 hsl 128 11 0.1 4 0 0 empty empty empty -2 -8 0 10 #e4e4e4 #4d4d4d #373737 0 1;
#X obj 634 288 + 1;
#X obj 47 50 inlet~ audio_l, f 13;
#X obj 145 50 inlet~ audio_r, f 13;
#X obj 43 608 outlet~ audio_l;
#X obj 149 608 outlet~ audio_r;
#X obj 798 132 hsl 128 11 0 1 0 0 empty empty empty -2 -8 0 10 #e4e4e4 #4d4d4d #373737 0 1;
#X obj 761 252 clip 0 1, f 7;
#X obj 827 252 r \$0-modsum-factor;
#X obj 1013 127 tgl 25 0 empty empty empty 17 7 0 10 #e4e4e4 #4d4d4d #373737 0 1;
#X obj 978 252 * -1;
#X obj 239 162 + 0;
#X obj 239 191 * 1;
#X obj 1020 252 * 2;
#X obj 1020 281 swap 1;
#X obj 1020 310 -;
#X obj 43 445 hv.filters/lowpass 10 5;
#X obj 219 445 hv.filters/lowpass 10 5;
#X text 412 101 debug: lp max freq;
#X text 615 101 debug: lp max Q, f 16;
#X text 787 101 debug: lp modulation amount;
#X text 996 101 debug: lp modulation inversion;
#X obj 865 79 route lp_mod;
#X obj 439 73 loadbang;
#X msg 1036 79 0;
#X msg 671 79 0.1;
#X obj 588 459 sig~;
#X obj 202 530 *~;
#X obj 103 530 *~;
#X obj 761 335 mult2values;
#X obj 634 417 mult2values;
#X obj 822 173 f;
#X obj 865 50 r \$0-mod-amount;
#X obj 588 565 lop~ 100;
#X obj 324 310 cnv 15 248 82 empty empty empty 20 12 0 14 #b7b7b7 #373737 0;
#X obj 397 340 * 1, f 7;
#X obj 338 332 * 5;
#X obj 338 361 clip 0 1;
#X text 330 309 reduces popping at beginning of build-up;
#X obj 588 335 f;
#X obj 588 288 + 0;
#X obj 1114 50 r lp_mod_inv @hv_param 0 1 0 bool;
#X obj 416 50 r lp_freq @hv_param 40 7000 2000;
#X obj 239 355 f, f 6;
#X msg 511 73 2000;
#X obj 655 50 r lp_q @hv_param 0.1 4 0.1;
#X obj 239 260 transpose_function_simple 100 3000 0.5;
#X obj 634 182 / 4;
#X obj 634 254 * -0.6, f 8;
#X connect 0 0 48 2;
#X connect 1 0 13 0;
#X connect 2 0 42 0;
#X connect 2 0 49 0;
#X connect 3 0 32 0;
#X connect 4 0 18 0;
#X connect 5 0 19 0;
#X connect 8 0 9 0;
#X connect 9 0 31 0;
#X connect 10 0 31 1;
#X connect 11 0 12 0;
#X connect 11 0 15 0;
#X connect 12 0 13 1;
#X connect 13 0 14 0;
#X connect 14 0 38 0;
#X connect 14 0 48 0;
#X connect 15 0 16 0;
#X connect 16 0 17 0;
#X connect 16 1 17 1;
#X connect 17 0 14 1;
#X connect 18 0 30 0;
#X connect 19 0 29 0;
#X connect 24 0 33 0;
#X connect 25 0 46 0;
#X connect 25 0 27 0;
#X connect 25 0 26 0;
#X connect 26 0 11 0;
#X connect 27 0 2 0;
#X connect 28 0 35 0;
#X connect 29 0 7 0;
#X connect 30 0 6 0;
#X connect 31 0 32 1;
#X connect 32 0 28 0;
#X connect 33 0 9 0;
#X connect 34 0 24 0;
#X connect 35 0 30 1;
#X connect 35 0 29 1;
#X connect 37 0 19 2;
#X connect 37 0 18 2;
#X connect 38 0 39 0;
#X connect 39 0 37 0;
#X connect 41 0 37 1;
#X connect 42 0 18 2;
#X connect 42 0 19 2;
#X connect 42 0 41 0;
#X connect 43 0 11 0;
#X connect 44 0 0 0;
#X connect 45 0 19 1;
#X connect 45 0 18 1;
#X connect 46 0 0 0;
#X connect 47 0 2 0;
#X connect 48 0 45 0;
#X connect 49 0 50 0;
#X connect 50 0 3 0;
#X restore 54 236 pd lp2;
#N canvas 0 50 450 300 flanger 0;
#X obj 412 117 hsl 128 11 0 1 0 0 empty empty empty -2 -8 0 10 #e4e4e4 #4d4d4d #373737 0 1;
#X obj 228 72 r \$0-timemod, f 13;
#X obj 36 35 inlet~ audio_l, f 13;
#X obj 134 35 inlet~ audio_r, f 13;
#X obj 35 1110 outlet~ audio_l;
#X obj 141 1110 outlet~ audio_r;
#X obj 1205 447 hsl 128 11 0 1 0 0 empty empty empty -2 -8 0 10 #e4e4e4 #4d4d4d #373737 0 1;
#X obj 1200 558 clip 0 1, f 7;
#X obj 1266 558 r \$0-modsum-factor;
#X obj 1198 346 r \$0-mod-amount;
#X obj 1198 375 route flanger_mod;
#X text 1191 407 debug: flanger modulation amount;
#X text 401 86 debug: flanger speed max;
#X obj 405 35 r fx_flanger_freq_max @hv_param 0 1 0.7;
#X obj 673 117 hsl 128 11 0 1 0 0 empty empty empty -2 -8 0 10 #e4e4e4 #4d4d4d #373737 0 1;
#X obj 666 35 r fx_flanger_freq_mod @hv_param 0 1 1;
#X msg 310 286 speed \$1;
#X obj 68 714 loadbang;
#X msg 68 743 mix 1;
#X obj 412 395 hsl 128 11 0 1 0 0 empty empty empty -2 -8 0 10 #e4e4e4 #4d4d4d #373737 0 1;
#X obj 673 395 hsl 128 11 0 1 0 0 empty empty empty -2 -8 0 10 #e4e4e4 #4d4d4d #373737 0 1;
#X obj 666 313 r fx_flanger_fback_mod @hv_param 0 1 1;
#X text 662 364 debug: flanger feedback mod amnt;
#X text 662 86 debug: flanger speed mod amnt;
#X obj 405 313 r fx_flanger_fback_max @hv_param 0 1 0.5;
#X text 401 364 debug: flanger feedback max;
#X obj 405 422 * 2, f 7;
#X obj 405 456 - 1;
#X msg 224 676 feedback \$1;
#X obj 408 761 hsl 128 11 0 1 0 0 empty empty empty -2 -8 0 10 #e4e4e4 #4d4d4d #373737 0 1;
#X obj 677 752 hsl 128 11 0 1 0 0 empty empty empty -2 -8 0 10 #e4e4e4 #4d4d4d #373737 0 1;
#X obj 401 670 r fx_flanger_intensity_max @hv_param 0 1 0.5;
#X obj 687 670 r fx_flanger_intensity_mod @hv_param 0 1 1;
#X text 658 721 debug: flanger intensity mod amnt;
#X text 397 721 debug: flanger intensity max;
#X msg 202 866 intensity \$1;
#X msg 1445 560 1;
#X msg 1474 560 0;
#X obj 746 772 * -1;
#X obj 746 801 + 1;
#X obj 750 465 * -1;
#X obj 750 494 + 1;
#X obj 808 145 * -1;
#X obj 808 174 + 1;
#X obj 328 242 * 20;
#X obj 1191 695 mult2values;
#X obj 340 812 mult2values;
#X obj 606 438 mult2values;
#X obj 632 560 mult2values;
#X obj 632 846 mult2values;
#X obj 726 231 mult2values;
#X obj 604 155 mult2values;
#X obj 509 207 mult2values;
#X obj 532 255 add2values;
#X obj 442 547 mult2values;
#X obj 552 606 add2values;
#X obj 458 846 mult2values;
#X obj 481 894 add2values;
#X obj 424 62 loadbang;
#X msg 496 62 0.7;
#X msg 694 62 1;
#X obj 430 346 loadbang;
#X msg 700 346 1;
#X obj 418 701 loadbang;
#X msg 688 701 1;
#X msg 502 346 0.5;
#X msg 490 701 0.5;
#X obj 47 925 hv.flanger2~ 20;
#X obj 1191 724 sig~;
#X obj 217 1076 *~;
#X obj 36 1076 *~;
#X connect 0 0 50 0;
#X connect 0 0 52 0;
#X connect 1 0 46 0;
#X connect 1 0 47 0;
#X connect 1 0 51 0;
#X connect 2 0 67 0;
#X connect 3 0 67 1;
#X connect 6 0 7 0;
#X connect 7 0 45 0;
#X connect 8 0 45 1;
#X connect 9 0 10 0;
#X connect 10 0 6 0;
#X connect 13 0 0 0;
#X connect 14 0 42 0;
#X connect 14 0 51 1;
#X connect 15 0 14 0;
#X connect 16 0 67 2;
#X connect 17 0 18 0;
#X connect 18 0 67 2;
#X connect 19 0 26 0;
#X connect 20 0 40 0;
#X connect 20 0 47 1;
#X connect 21 0 20 0;
#X connect 24 0 19 0;
#X connect 26 0 27 0;
#X connect 27 0 48 0;
#X connect 27 0 54 0;
#X connect 28 0 67 2;
#X connect 29 0 49 0;
#X connect 29 0 56 1;
#X connect 30 0 38 0;
#X connect 30 0 46 1;
#X connect 31 0 29 0;
#X connect 32 0 30 0;
#X connect 35 0 67 2;
#X connect 36 0 45 1;
#X connect 37 0 45 1;
#X connect 38 0 39 0;
#X connect 39 0 49 1;
#X connect 40 0 41 0;
#X connect 41 0 48 1;
#X connect 42 0 43 0;
#X connect 43 0 50 1;
#X connect 44 0 16 0;
#X connect 45 0 68 0;
#X connect 46 0 56 0;
#X connect 47 0 54 1;
#X connect 48 0 55 1;
#X connect 49 0 57 1;
#X connect 50 0 53 1;
#X connect 51 0 52 1;
#X connect 52 0 53 0;
#X connect 53 0 44 0;
#X connect 54 0 55 0;
#X connect 55 0 28 0;
#X connect 56 0 57 0;
#X connect 57 0 35 0;
#X connect 58 0 59 0;
#X connect 58 0 60 0;
#X connect 59 0 0 0;
#X connect 60 0 14 0;
#X connect 61 0 65 0;
#X connect 61 0 62 0;
#X connect 62 0 20 0;
#X connect 63 0 66 0;
#X connect 63 0 64 0;
#X connect 64 0 30 0;
#X connect 65 0 19 0;
#X connect 66 0 29 0;
#X connect 67 0 70 0;
#X connect 67 1 69 0;
#X connect 68 0 69 1;
#X connect 68 0 70 1;
#X connect 69 0 5 0;
#X connect 70 0 4 0;
#X restore 310 236 pd flanger;
#N canvas 0 50 450 300 phaser 0;
#X obj 366 360 +~ 1;
#X obj 366 387 *~ 0.5;
#X text 366 212 Low Frequency Oscillator;
#X text 494 415 Depth (ms);
#X obj 366 333 osc~ 1;
#X text 426 233 Rate (Hz);
#X text 511 455 Shift (ms);
#X obj 121 670 +~, f 5;
#X obj 370 236 nbx 5 14 -1e+37 1e+37 0 0 empty \$0-rate empty 0 -8 0 10 #fcfcfc #000000 #000000 0 256;
#X obj 435 419 nbx 5 14 0 1e+37 0 0 empty \$0-depth empty 0 -8 0 10 #fcfcfc #000000 #000000 0 256;
#X obj 451 459 nbx 5 14 0 1e+37 0 0 empty \$0-shift empty 0 -8 0 10 #fcfcfc #000000 #000000 0 256;
#N canvas 0 22 622 635 apset~ 0;
#N canvas 0 22 450 300 ap~ 0;
#X obj 127 160 rpole~;
#X obj 127 135 rzero_rev~;
#X obj 127 92 inlet~;
#X obj 127 185 outlet~;
#X obj 204 92 inlet~;
#X connect 0 0 3 0;
#X connect 1 0 0 0;
#X connect 2 0 1 0;
#X connect 4 0 1 1;
#X connect 4 0 0 1;
#X restore 155 36 pd ap~;
#N canvas 0 22 450 300 ap~ 0;
#X obj 127 160 rpole~;
#X obj 127 135 rzero_rev~;
#X obj 127 92 inlet~;
#X obj 127 185 outlet~;
#X obj 204 92 inlet~;
#X connect 0 0 3 0;
#X connect 1 0 0 0;
#X connect 2 0 1 0;
#X connect 4 0 1 1;
#X connect 4 0 0 1;
#X restore 155 66 pd ap~;
#N canvas 0 22 450 300 ap~ 0;
#X obj 127 160 rpole~;
#X obj 127 135 rzero_rev~;
#X obj 127 92 inlet~;
#X obj 127 185 outlet~;
#X obj 204 92 inlet~;
#X connect 0 0 3 0;
#X connect 1 0 0 0;
#X connect 2 0 1 0;
#X connect 4 0 1 1;
#X connect 4 0 0 1;
#X restore 155 96 pd ap~;
#N canvas 0 22 450 300 ap~ 0;
#X obj 127 160 rpole~;
#X obj 127 135 rzero_rev~;
#X obj 127 92 inlet~;
#X obj 127 185 outlet~;
#X obj 204 92 inlet~;
#X connect 0 0 3 0;
#X connect 1 0 0 0;
#X connect 2 0 1 0;
#X connect 4 0 1 1;
#X connect 4 0 0 1;
#X restore 155 126 pd ap~;
#N canvas 0 22 450 300 ap~ 0;
#X obj 127 160 rpole~;
#X obj 127 135 rzero_rev~;
#X obj 127 92 inlet~;
#X obj 127 185 outlet~;
#X obj 204 92 inlet~;
#X connect 0 0 3 0;
#X connect 1 0 0 0;
#X connect 2 0 1 0;
#X connect 4 0 1 1;
#X connect 4 0 0 1;
#X restore 155 156 pd ap~;
#N canvas 0 22 450 300 ap~ 0;
#X obj 127 160 rpole~;
#X obj 127 135 rzero_rev~;
#X obj 127 92 inlet~;
#X obj 127 185 outlet~;
#X obj 204 92 inlet~;
#X connect 0 0 3 0;
#X connect 1 0 0 0;
#X connect 2 0 1 0;
#X connect 4 0 1 1;
#X connect 4 0 0 1;
#X restore 155 186 pd ap~;
#N canvas 0 22 450 300 ap~ 0;
#X obj 127 160 rpole~;
#X obj 127 135 rzero_rev~;
#X obj 127 92 inlet~;
#X obj 127 185 outlet~;
#X obj 204 92 inlet~;
#X connect 0 0 3 0;
#X connect 1 0 0 0;
#X connect 2 0 1 0;
#X connect 4 0 1 1;
#X connect 4 0 0 1;
#X restore 155 216 pd ap~;
#N canvas 0 22 450 300 ap~ 0;
#X obj 127 160 rpole~;
#X obj 127 135 rzero_rev~;
#X obj 127 92 inlet~;
#X obj 127 185 outlet~;
#X obj 204 92 inlet~;
#X connect 0 0 3 0;
#X connect 1 0 0 0;
#X connect 2 0 1 0;
#X connect 4 0 1 1;
#X connect 4 0 0 1;
#X restore 155 246 pd ap~;
#N canvas 0 22 450 300 ap~ 0;
#X obj 127 160 rpole~;
#X obj 127 135 rzero_rev~;
#X obj 127 92 inlet~;
#X obj 127 185 outlet~;
#X obj 204 92 inlet~;
#X connect 0 0 3 0;
#X connect 1 0 0 0;
#X connect 2 0 1 0;
#X connect 4 0 1 1;
#X connect 4 0 0 1;
#X restore 155 276 pd ap~;
#N canvas 0 22 450 300 ap~ 0;
#X obj 127 160 rpole~;
#X obj 127 135 rzero_rev~;
#X obj 127 92 inlet~;
#X obj 127 185 outlet~;
#X obj 204 92 inlet~;
#X connect 0 0 3 0;
#X connect 1 0 0 0;
#X connect 2 0 1 0;
#X connect 4 0 1 1;
#X connect 4 0 0 1;
#X restore 155 306 pd ap~;
#N canvas 0 22 450 300 ap~ 0;
#X obj 127 160 rpole~;
#X obj 127 135 rzero_rev~;
#X obj 127 92 inlet~;
#X obj 127 185 outlet~;
#X obj 204 92 inlet~;
#X connect 0 0 3 0;
#X connect 1 0 0 0;
#X connect 2 0 1 0;
#X connect 4 0 1 1;
#X connect 4 0 0 1;
#X restore 155 336 pd ap~;
#N canvas 0 22 450 300 ap~ 0;
#X obj 127 160 rpole~;
#X obj 127 135 rzero_rev~;
#X obj 127 92 inlet~;
#X obj 127 185 outlet~;
#X obj 204 92 inlet~;
#X connect 0 0 3 0;
#X connect 1 0 0 0;
#X connect 2 0 1 0;
#X connect 4 0 1 1;
#X connect 4 0 0 1;
#X restore 155 366 pd ap~;
#N canvas 0 22 450 300 ap~ 0;
#X obj 127 160 rpole~;
#X obj 127 135 rzero_rev~;
#X obj 127 92 inlet~;
#X obj 127 185 outlet~;
#X obj 204 92 inlet~;
#X connect 0 0 3 0;
#X connect 1 0 0 0;
#X connect 2 0 1 0;
#X connect 4 0 1 1;
#X connect 4 0 0 1;
#X restore 155 396 pd ap~;
#N canvas 0 22 450 300 ap~ 0;
#X obj 127 160 rpole~;
#X obj 127 135 rzero_rev~;
#X obj 127 92 inlet~;
#X obj 127 185 outlet~;
#X obj 204 92 inlet~;
#X connect 0 0 3 0;
#X connect 1 0 0 0;
#X connect 2 0 1 0;
#X connect 4 0 1 1;
#X connect 4 0 0 1;
#X restore 155 426 pd ap~;
#N canvas 0 22 450 300 ap~ 0;
#X obj 127 160 rpole~;
#X obj 127 135 rzero_rev~;
#X obj 127 92 inlet~;
#X obj 127 185 outlet~;
#X obj 204 92 inlet~;
#X connect 0 0 3 0;
#X connect 1 0 0 0;
#X connect 2 0 1 0;
#X connect 4 0 1 1;
#X connect 4 0 0 1;
#X restore 155 456 pd ap~;
#N canvas 0 22 450 300 ap~ 0;
#X obj 127 160 rpole~;
#X obj 127 135 rzero_rev~;
#X obj 127 92 inlet~;
#X obj 127 185 outlet~;
#X obj 204 92 inlet~;
#X connect 0 0 3 0;
#X connect 1 0 0 0;
#X connect 2 0 1 0;
#X connect 4 0 1 1;
#X connect 4 0 0 1;
#X restore 155 486 pd ap~;
#X obj 155 6 inlet~;
#X obj 225 6 inlet~;
#X obj 155 511 outlet~;
#X connect 0 0 1 0;
#X connect 1 0 2 0;
#X connect 2 0 3 0;
#X connect 3 0 4 0;
#X connect 4 0 5 0;
#X connect 5 0 6 0;
#X connect 6 0 7 0;
#X connect 7 0 8 0;
#X connect 8 0 9 0;
#X connect 9 0 10 0;
#X connect 10 0 11 0;
#X connect 11 0 12 0;
#X connect 12 0 13 0;
#X connect 13 0 14 0;
#X connect 14 0 15 0;
#X connect 15 0 18 0;
#X connect 16 0 0 0;
#X connect 17 0 0 1;
#X connect 17 0 1 1;
#X connect 17 0 2 1;
#X connect 17 0 3 1;
#X connect 17 0 4 1;
#X connect 17 0 5 1;
#X connect 17 0 6 1;
#X connect 17 0 7 1;
#X connect 17 0 8 1;
#X connect 17 0 9 1;
#X connect 17 0 10 1;
#X connect 17 0 11 1;
#X connect 17 0 12 1;
#X connect 17 0 13 1;
#X connect 17 0 14 1;
#X connect 17 0 15 1;
#X restore 150 574 pd apset~;
#X obj 366 446 *~ 0.3, f 9;
#X obj 366 486 +~ 0.6, f 11;
#X obj 210 541 clip~ 0 1;
#N canvas 0 22 622 635 apset~ 0;
#N canvas 0 22 450 300 ap~ 0;
#X obj 127 160 rpole~;
#X obj 127 135 rzero_rev~;
#X obj 127 92 inlet~;
#X obj 127 185 outlet~;
#X obj 204 92 inlet~;
#X connect 0 0 3 0;
#X connect 1 0 0 0;
#X connect 2 0 1 0;
#X connect 4 0 1 1;
#X connect 4 0 0 1;
#X restore 155 36 pd ap~;
#N canvas 0 22 450 300 ap~ 0;
#X obj 127 160 rpole~;
#X obj 127 135 rzero_rev~;
#X obj 127 92 inlet~;
#X obj 127 185 outlet~;
#X obj 204 92 inlet~;
#X connect 0 0 3 0;
#X connect 1 0 0 0;
#X connect 2 0 1 0;
#X connect 4 0 1 1;
#X connect 4 0 0 1;
#X restore 155 66 pd ap~;
#N canvas 0 22 450 300 ap~ 0;
#X obj 127 160 rpole~;
#X obj 127 135 rzero_rev~;
#X obj 127 92 inlet~;
#X obj 127 185 outlet~;
#X obj 204 92 inlet~;
#X connect 0 0 3 0;
#X connect 1 0 0 0;
#X connect 2 0 1 0;
#X connect 4 0 1 1;
#X connect 4 0 0 1;
#X restore 155 96 pd ap~;
#N canvas 0 22 450 300 ap~ 0;
#X obj 127 160 rpole~;
#X obj 127 135 rzero_rev~;
#X obj 127 92 inlet~;
#X obj 127 185 outlet~;
#X obj 204 92 inlet~;
#X connect 0 0 3 0;
#X connect 1 0 0 0;
#X connect 2 0 1 0;
#X connect 4 0 1 1;
#X connect 4 0 0 1;
#X restore 155 126 pd ap~;
#N canvas 0 22 450 300 ap~ 0;
#X obj 127 160 rpole~;
#X obj 127 135 rzero_rev~;
#X obj 127 92 inlet~;
#X obj 127 185 outlet~;
#X obj 204 92 inlet~;
#X connect 0 0 3 0;
#X connect 1 0 0 0;
#X connect 2 0 1 0;
#X connect 4 0 1 1;
#X connect 4 0 0 1;
#X restore 155 156 pd ap~;
#N canvas 0 22 450 300 ap~ 0;
#X obj 127 160 rpole~;
#X obj 127 135 rzero_rev~;
#X obj 127 92 inlet~;
#X obj 127 185 outlet~;
#X obj 204 92 inlet~;
#X connect 0 0 3 0;
#X connect 1 0 0 0;
#X connect 2 0 1 0;
#X connect 4 0 1 1;
#X connect 4 0 0 1;
#X restore 155 186 pd ap~;
#N canvas 0 22 450 300 ap~ 0;
#X obj 127 160 rpole~;
#X obj 127 135 rzero_rev~;
#X obj 127 92 inlet~;
#X obj 127 185 outlet~;
#X obj 204 92 inlet~;
#X connect 0 0 3 0;
#X connect 1 0 0 0;
#X connect 2 0 1 0;
#X connect 4 0 1 1;
#X connect 4 0 0 1;
#X restore 155 216 pd ap~;
#N canvas 0 22 450 300 ap~ 0;
#X obj 127 160 rpole~;
#X obj 127 135 rzero_rev~;
#X obj 127 92 inlet~;
#X obj 127 185 outlet~;
#X obj 204 92 inlet~;
#X connect 0 0 3 0;
#X connect 1 0 0 0;
#X connect 2 0 1 0;
#X connect 4 0 1 1;
#X connect 4 0 0 1;
#X restore 155 246 pd ap~;
#N canvas 0 22 450 300 ap~ 0;
#X obj 127 160 rpole~;
#X obj 127 135 rzero_rev~;
#X obj 127 92 inlet~;
#X obj 127 185 outlet~;
#X obj 204 92 inlet~;
#X connect 0 0 3 0;
#X connect 1 0 0 0;
#X connect 2 0 1 0;
#X connect 4 0 1 1;
#X connect 4 0 0 1;
#X restore 155 276 pd ap~;
#N canvas 0 22 450 300 ap~ 0;
#X obj 127 160 rpole~;
#X obj 127 135 rzero_rev~;
#X obj 127 92 inlet~;
#X obj 127 185 outlet~;
#X obj 204 92 inlet~;
#X connect 0 0 3 0;
#X connect 1 0 0 0;
#X connect 2 0 1 0;
#X connect 4 0 1 1;
#X connect 4 0 0 1;
#X restore 155 306 pd ap~;
#N canvas 0 22 450 300 ap~ 0;
#X obj 127 160 rpole~;
#X obj 127 135 rzero_rev~;
#X obj 127 92 inlet~;
#X obj 127 185 outlet~;
#X obj 204 92 inlet~;
#X connect 0 0 3 0;
#X connect 1 0 0 0;
#X connect 2 0 1 0;
#X connect 4 0 1 1;
#X connect 4 0 0 1;
#X restore 155 336 pd ap~;
#N canvas 0 22 450 300 ap~ 0;
#X obj 127 160 rpole~;
#X obj 127 135 rzero_rev~;
#X obj 127 92 inlet~;
#X obj 127 185 outlet~;
#X obj 204 92 inlet~;
#X connect 0 0 3 0;
#X connect 1 0 0 0;
#X connect 2 0 1 0;
#X connect 4 0 1 1;
#X connect 4 0 0 1;
#X restore 155 366 pd ap~;
#N canvas 0 22 450 300 ap~ 0;
#X obj 127 160 rpole~;
#X obj 127 135 rzero_rev~;
#X obj 127 92 inlet~;
#X obj 127 185 outlet~;
#X obj 204 92 inlet~;
#X connect 0 0 3 0;
#X connect 1 0 0 0;
#X connect 2 0 1 0;
#X connect 4 0 1 1;
#X connect 4 0 0 1;
#X restore 155 396 pd ap~;
#N canvas 0 22 450 300 ap~ 0;
#X obj 127 160 rpole~;
#X obj 127 135 rzero_rev~;
#X obj 127 92 inlet~;
#X obj 127 185 outlet~;
#X obj 204 92 inlet~;
#X connect 0 0 3 0;
#X connect 1 0 0 0;
#X connect 2 0 1 0;
#X connect 4 0 1 1;
#X connect 4 0 0 1;
#X restore 155 426 pd ap~;
#N canvas 0 22 450 300 ap~ 0;
#X obj 127 160 rpole~;
#X obj 127 135 rzero_rev~;
#X obj 127 92 inlet~;
#X obj 127 185 outlet~;
#X obj 204 92 inlet~;
#X connect 0 0 3 0;
#X connect 1 0 0 0;
#X connect 2 0 1 0;
#X connect 4 0 1 1;
#X connect 4 0 0 1;
#X restore 155 456 pd ap~;
#N canvas 0 22 450 300 ap~ 0;
#X obj 127 160 rpole~;
#X obj 127 135 rzero_rev~;
#X obj 127 92 inlet~;
#X obj 127 185 outlet~;
#X obj 204 92 inlet~;
#X connect 0 0 3 0;
#X connect 1 0 0 0;
#X connect 2 0 1 0;
#X connect 4 0 1 1;
#X connect 4 0 0 1;
#X restore 155 486 pd ap~;
#X obj 155 6 inlet~;
#X obj 225 6 inlet~;
#X obj 155 511 outlet~;
#X connect 0 0 1 0;
#X connect 1 0 2 0;
#X connect 2 0 3 0;
#X connect 3 0 4 0;
#X connect 4 0 5 0;
#X connect 5 0 6 0;
#X connect 6 0 7 0;
#X connect 7 0 8 0;
#X connect 8 0 9 0;
#X connect 9 0 10 0;
#X connect 10 0 11 0;
#X connect 11 0 12 0;
#X connect 12 0 13 0;
#X connect 13 0 14 0;
#X connect 14 0 15 0;
#X connect 15 0 18 0;
#X connect 16 0 0 0;
#X connect 17 0 0 1;
#X connect 17 0 1 1;
#X connect 17 0 2 1;
#X connect 17 0 3 1;
#X connect 17 0 4 1;
#X connect 17 0 5 1;
#X connect 17 0 6 1;
#X connect 17 0 7 1;
#X connect 17 0 8 1;
#X connect 17 0 9 1;
#X connect 17 0 10 1;
#X connect 17 0 11 1;
#X connect 17 0 12 1;
#X connect 17 0 13 1;
#X connect 17 0 14 1;
#X connect 17 0 15 1;
#X restore 346 588 pd apset~;
#X obj 406 555 clip~ 0 1;
#X obj 303 684 +~, f 5;
#X obj 126 64 inlet~ audio_l;
#X obj 237 64 inlet~ audio_r;
#X obj 702 148 hsl 128 11 0 1 0 0 empty empty empty -2 -8 0 10 #e4e4e4 #4d4d4d #373737 0 1;
#X obj 524 71 r \$0-timemod, f 13;
#X obj 866 150 hsl 128 11 0 1 0 0 empty empty empty -2 -8 0 10 #e4e4e4 #4d4d4d #373737 0 1;
#X obj 122 840 outlet~ audio_l;
#X obj 228 840 outlet~ audio_r;
#X obj 1038 146 hsl 128 11 0 1 0 0 empty empty empty -2 -8 0 10 #e4e4e4 #4d4d4d #373737 0 1;
#X obj 1032 288 clip 0 1, f 7;
#X obj 1100 288 r \$0-modsum-factor;
#X obj 524 112 + 0;
#X obj 524 141 * 1;
#X obj 1260 141 tgl 25 0 empty empty empty 17 7 0 10 #e4e4e4 #4d4d4d #373737 0 1;
#X obj 1260 288 * -1;
#X obj 1302 288 * 2;
#X obj 1302 317 swap 1;
#X obj 1302 346 -;
#X obj 1132 57 r \$0-mod-amount;
#X obj 641 64 r fx_phaser_freq @hv_param 0 1 0.2;
#X obj 695 178 * 20, f 7;
#X obj 1330 64 r fx_phaser_mod_inv @hv_param 0 1 0 toggle;
#X obj 1132 88 route phaser_mod;
#X obj 929 234 * -1;
#X obj 929 263 + 1;
#X text 687 115 debug: phaser max freq;
#X text 855 115 debug: phaser freq mod, f 24;
#X obj 871 64 r fx_phaser_freq_mod @hv_param 0 1 0.1;
#X text 1027 115 debug: phaser modulation amount;
#X text 1243 115 debug: phaser modulation inversion;
#X obj 617 405 sig~;
#X obj 1039 373 mult2values;
#X obj 871 317 mult2values;
#X obj 664 246 mult2values;
#X obj 680 308 mult2values;
#X obj 705 360 add2values;
#X obj 688 95 loadbang;
#X msg 1351 88 0;
#X msg 958 95 0.1;
#X msg 760 95 0.2;
#X obj 892 466 sig~;
#X obj 303 735 *~;
#X obj 121 735 *~;
#X connect 0 0 1 0;
#X connect 1 0 12 0;
#X connect 4 0 0 0;
#X connect 7 0 59 0;
#X connect 8 0 47 0;
#X connect 9 0 12 1;
#X connect 10 0 13 1;
#X connect 11 0 7 1;
#X connect 12 0 13 0;
#X connect 13 0 14 0;
#X connect 13 0 16 0;
#X connect 14 0 11 1;
#X connect 15 0 17 1;
#X connect 16 0 15 1;
#X connect 17 0 58 0;
#X connect 18 0 7 0;
#X connect 18 0 11 0;
#X connect 19 0 17 0;
#X connect 19 0 15 0;
#X connect 20 0 37 0;
#X connect 21 0 28 0;
#X connect 22 0 40 0;
#X connect 22 0 50 1;
#X connect 25 0 26 0;
#X connect 26 0 48 0;
#X connect 27 0 48 1;
#X connect 28 0 29 0;
#X connect 29 0 50 0;
#X connect 30 0 31 0;
#X connect 30 0 32 0;
#X connect 31 0 28 1;
#X connect 32 0 33 0;
#X connect 33 0 34 0;
#X connect 33 1 34 1;
#X connect 34 0 29 1;
#X connect 35 0 39 0;
#X connect 36 0 20 0;
#X connect 37 0 49 0;
#X connect 37 0 51 1;
#X connect 38 0 30 0;
#X connect 39 0 25 0;
#X connect 40 0 41 0;
#X connect 41 0 49 1;
#X connect 44 0 22 0;
#X connect 47 0 4 0;
#X connect 48 0 57 0;
#X connect 49 0 52 1;
#X connect 50 0 51 0;
#X connect 51 0 52 0;
#X connect 52 0 47 0;
#X connect 53 0 56 0;
#X connect 53 0 55 0;
#X connect 54 0 30 0;
#X connect 55 0 22 0;
#X connect 56 0 20 0;
#X connect 57 0 58 1;
#X connect 57 0 59 1;
#X connect 58 0 24 0;
#X connect 59 0 23 0;
#X restore 391 236 pd phaser;
#X obj 707 356 add2values;
#X obj 707 384 add2values;
#X obj 707 411 add2values;
#X obj 707 746 f;
#X obj 707 444 add2values;
#X obj 707 478 add2values;
#X obj 964 323 f 0;
#X obj 1023 323 f 0;
#X obj 705 259 r \$0-mod-amount;
#X obj 705 290 route lp_mod hp_mod bp_mod notch_mod flanger_mod phaser_mod;
#X obj 1028 116 tgl 25 0 empty empty empty 17 7 0 10 #e4e4e4 #4d4d4d #373737 0 1;
#X obj 1060 116 tgl 25 0 empty empty empty 17 7 0 10 #e4e4e4 #4d4d4d #373737 0 1;
#X obj 1092 116 tgl 25 0 empty empty empty 17 7 0 10 #e4e4e4 #4d4d4d #373737 0 1;
#X obj 1124 116 tgl 25 0 empty empty empty 17 7 0 10 #e4e4e4 #4d4d4d #373737 0 1;
#X text 1024 86 debugging amount;
#X msg 859 75 lp_mod \$1;
#X msg 859 104 hp_mod \$1;
#X msg 859 134 bp_mod \$1;
#X msg 859 163 notch_mod \$1;
#X msg 859 191 flanger_mod \$1;
#X obj 1156 116 tgl 25 0 empty empty empty 17 7 0 10 #e4e4e4 #4d4d4d #373737 0 1;
#X msg 859 223 phaser_mod \$1;
#X obj 1188 116 tgl 25 0 empty empty empty 17 7 0 10 #e4e4e4 #4d4d4d #373737 0 1;
#X obj 1189 33 loadbang;
#X obj 985 223 s \$0-mod-amount;
#X obj 280 904 *~;
#X obj 1280 186 tgl 25 0 empty empty empty 17 7 0 10 #e4e4e4 #4d4d4d #373737 0 1;
#X obj 1280 220 * -1;
#X obj 1280 281 sig~;
#X obj 1326 281 sig~;
#X obj 322 904 *~;
#X obj 51 965 outlet~ audio_l;
#X obj 157 965 outlet~ audio_r;
#X obj 165 904 *~;
#X obj 59 904 *~;
#X obj 1272 356 lop~ 100;
#X obj 1343 356 lop~ 100;
#X obj 1280 252 + 1;
#X msg 1190 76 0;
#X obj 1280 37 r fx_filters_off @hv_param 0 1 1 bool;
#X msg 1222 76 1;
#X obj 635 104 r filter_amount_hp @hv_param 0 1 0;
#X obj 635 75 r filter_amount_lp @hv_param;
#X obj 635 134 r filter_amount_bp @hv_param 0 1 0;
#X obj 635 163 r filter_amount_notch @hv_param 0 1 0;
#X obj 635 220 r filter_amount_phaser @hv_param 0 1 0;
#X obj 635 191 r filter_amount_flanger @hv_param 0 1 0;
#X obj 707 656 clip 0 1;
#X connect 0 0 12 0;
#X connect 0 0 3 0;
#X connect 0 0 2 0;
#X connect 0 0 13 0;
#X connect 0 0 11 0;
#X connect 0 0 14 0;
#X connect 0 0 40 0;
#X connect 1 0 12 1;
#X connect 1 0 3 1;
#X connect 1 0 2 1;
#X connect 1 0 13 1;
#X connect 1 0 11 1;
#X connect 1 0 14 1;
#X connect 1 0 45 0;
#X connect 2 0 49 0;
#X connect 2 1 48 0;
#X connect 3 0 49 0;
#X connect 3 1 48 0;
#X connect 4 0 15 0;
#X connect 5 0 15 1;
#X connect 6 0 16 1;
#X connect 7 0 17 1;
#X connect 8 0 9 0;
#X connect 8 1 9 1;
#X connect 9 0 62 0;
#X connect 11 0 49 0;
#X connect 11 1 48 0;
#X connect 12 0 49 0;
#X connect 12 1 48 0;
#X connect 13 0 49 0;
#X connect 13 1 48 0;
#X connect 14 0 49 0;
#X connect 14 1 48 0;
#X connect 15 0 16 0;
#X connect 16 0 17 0;
#X connect 17 0 19 0;
#X connect 18 0 10 0;
#X connect 19 0 20 0;
#X connect 20 0 8 0;
#X connect 21 0 19 1;
#X connect 22 0 20 1;
#X connect 23 0 24 0;
#X connect 24 0 4 0;
#X connect 24 1 5 0;
#X connect 24 2 6 0;
#X connect 24 3 7 0;
#X connect 24 4 21 0;
#X connect 24 5 22 0;
#X connect 25 0 30 0;
#X connect 26 0 31 0;
#X connect 27 0 32 0;
#X connect 28 0 33 0;
#X connect 30 0 39 0;
#X connect 31 0 39 0;
#X connect 32 0 39 0;
#X connect 33 0 39 0;
#X connect 34 0 39 0;
#X connect 35 0 34 0;
#X connect 36 0 39 0;
#X connect 37 0 36 0;
#X connect 38 0 53 0;
#X connect 38 0 55 0;
#X connect 40 0 46 0;
#X connect 41 0 42 0;
#X connect 41 0 44 0;
#X connect 42 0 52 0;
#X connect 43 0 50 0;
#X connect 44 0 51 0;
#X connect 45 0 47 0;
#X connect 48 0 47 0;
#X connect 49 0 46 0;
#X connect 50 0 48 1;
#X connect 50 0 49 1;
#X connect 51 0 45 1;
#X connect 51 0 40 1;
#X connect 52 0 43 0;
#X connect 53 0 25 0;
#X connect 53 0 26 0;
#X connect 53 0 27 0;
#X connect 53 0 28 0;
#X connect 53 0 35 0;
#X connect 53 0 37 0;
#X connect 54 0 41 0;
#X connect 55 0 41 0;
#X connect 56 0 31 0;
#X connect 57 0 30 0;
#X connect 58 0 32 0;
#X connect 59 0 33 0;
#X connect 60 0 36 0;
#X connect 60 0 24 0;
#X connect 61 0 34 0;
#X connect 62 0 18 0;
#X restore 1069 568 pd fx_chain_01;
#X obj 609 28 r beat_repeat_triplet @hv_param 0 1 0 bool;
#X obj 660 61 r retrigger @hv_param 0 1 1 bool;
#X obj 271 763 hsl 128 17 0 1 0 0 empty empty empty -2 -8 0 10 #e4e4e4 #4d4d4d #373737 0 1;
#X obj 243 708 loadbang;
#X msg 236 733 1;
#X obj 123 824 r audio_debug @hv_param 0 1 1;
#X obj 533 58 loadbang;
#X obj 886 58 int;
#X obj 423 831 sig~;
#X obj 1069 358 sig~;
#X obj 1490 28 loadbang;
#X msg 1492 53 0;
#X obj 542 694 catch~ debug-bus2_r;
#X obj 362 699 catch~ debug-bus2_l;
#N canvas 0 50 450 300 fx_chain_02 0;
#X obj 75 49 inlet~ audio_l;
#X obj 173 49 inlet~ audio_r;
#X obj 67 939 outlet~ audio_l;
#X obj 173 939 outlet~ audio_r;
#N canvas 0 50 450 300 stutter 0;
#N canvas 0 50 450 300 beat_stutter_chooser 0;
#X obj 319 38 loadbang;
#X obj 71 38 inlet fader_in;
#X obj 71 279 outlet beat_divisor;
#X obj 431 114 bng 25 250 50 0 empty empty empty 17 7 0 10 #e4e4e4 #4d4d4d #373737;
#X floatatom 293 211 3 0 9 0 - - - 16;
#X obj 431 344 pow 2;
#X obj 431 308 swap 2;
#X msg 379 196 0;
#X obj 501 246 f;
#X obj 501 275 t f f;
#X msg 409 196 1;
#X msg 439 196 2;
#X msg 469 196 3;
#X msg 499 196 4;
#X msg 529 196 5;
#X msg 559 196 6;
#X msg 589 196 7;
#X msg 619 196 8;
#X msg 649 196 9;
#X msg 319 108 6;
#X obj 211 262 tabread stutter_beats;
#X obj 210 183 int;
#X obj 431 67 table stutter_beats 11;
#X obj 615 404 tabwrite stutter_beats;
#X obj 65 225 int;
#X obj 65 168 pow 2;
#X obj 65 132 swap 2;
#X obj 71 85 int;
#X connect 0 0 19 0;
#X connect 0 0 3 0;
#X connect 1 0 27 0;
#X connect 3 0 7 0;
#X connect 3 0 10 0;
#X connect 3 0 11 0;
#X connect 3 0 12 0;
#X connect 3 0 13 0;
#X connect 3 0 14 0;
#X connect 3 0 15 0;
#X connect 3 0 16 0;
#X connect 3 0 17 0;
#X connect 3 0 18 0;
#X connect 4 0 20 0;
#X connect 5 0 23 0;
#X connect 6 0 5 0;
#X connect 6 1 5 1;
#X connect 7 0 8 0;
#X connect 8 0 9 0;
#X connect 9 0 6 0;
#X connect 9 1 23 1;
#X connect 10 0 8 0;
#X connect 11 0 8 0;
#X connect 12 0 8 0;
#X connect 13 0 8 0;
#X connect 14 0 8 0;
#X connect 15 0 8 0;
#X connect 16 0 8 0;
#X connect 17 0 8 0;
#X connect 18 0 8 0;
#X connect 19 0 20 0;
#X connect 21 0 20 0;
#X connect 24 0 2 0;
#X connect 25 0 24 0;
#X connect 26 0 25 0;
#X connect 26 1 25 1;
#X connect 27 0 26 0;
#X restore 887 140 pd beat_stutter_chooser;
#X obj 370 347 bng 25 50 20 0 empty empty empty 17 7 0 10 #e4e4e4 #4d4d4d #373737;
#X floatatom 416 285 5 0 0 0 - - - 12;
#X obj 370 311 select 0;
#X obj 370 243 mod 128;
#X obj 416 125 r \$0-bang_counter;
#X obj 918 111 hsl 128 17 3 9 0 0 empty empty empty -2 -8 0 10 #e4e4e4 #4d4d4d #373737 0 1;
#X msg 915 83 6;
#X obj 914 58 loadbang;
#X msg 372 193 0;
#X obj 372 492 sig~;
#X obj 372 520 lop~ 10;
#X obj 81 125 inlet~ audio_l;
#X obj 179 125 inlet~ audio_r;
#X obj 81 875 outlet~ audio_l;
#X obj 187 875 outlet~ audio_r;
#X obj 74 745 *~;
#X obj 187 745 *~;
#X obj 1120 100 hsl 128 17 0.1 100 1 0 empty empty empty -2 -8 0 10 #e4e4e4 #4d4d4d #373737 0 1;
#X obj 1265 66 loadbang;
#X obj 1117 133 f;
#X obj 1135 333 hsl 128 20 0 1 0 0 empty empty empty -2 -8 0 10 #e4e4e4 #4d4d4d #373737 0 1;
#X obj 1279 333 loadbang;
#X obj 1132 371 f, f 5;
#X obj 77 805 *~;
#X obj 187 815 *~;
#X obj 1132 402 sig~, f 5;
#X obj 1127 304 r stutter_mod @hv_param 0 1 0;
#X msg 1280 363 0;
#X obj 1117 66 + 0.1;
#X msg 1262 100 50;
#X obj 1117 37 r stutter_hardness @hv_param 0 100 50;
#X obj 724 66 r \$0-timemod;
#X obj 613 66 loadbang;
#X msg 614 94 0;
#X obj 560 156 f;
#X obj 560 37 r stutter_interval_modulation @hv_param 0 1 0 bool;
#X obj 560 66 tgl 25 0 empty empty empty 17 7 0 10 #e4e4e4 #4d4d4d #373737 0 1;
#N canvas 0 50 450 300 division_chooser 0;
#X obj 53 109 inlet percentage;
#X obj 53 644 outlet bang;
#X obj 140 644 outlet value;
#X obj 53 603 bng 25 250 50 0 empty empty empty 17 7 0 10 #e4e4e4 #4d4d4d #373737;
#X obj 330 119 inlet maximum;
#X obj 53 543 t b f;
#X obj 53 150 * 8;
#X obj 53 183 int;
#X obj 53 212 change;
#X msg 55 288 1;
#X msg 85 288 2;
#X msg 115 288 4;
#X msg 145 288 8;
#X obj 53 331 change;
#X obj 53 250 select 0 1 2 3 4 5 6 7;
#X obj 53 410 f;
#X obj 53 442 /;
#X obj 227 393 t b f;
#X msg 379 227 1;
#X obj 330 191 t f b;
#X connect 0 0 6 0;
#X connect 3 0 1 0;
#X connect 4 0 19 0;
#X connect 5 0 3 0;
#X connect 5 1 2 0;
#X connect 6 0 7 0;
#X connect 7 0 8 0;
#X connect 8 0 14 0;
#X connect 9 0 13 0;
#X connect 10 0 13 0;
#X connect 11 0 13 0;
#X connect 12 0 13 0;
#X connect 13 0 17 0;
#X connect 14 0 9 0;
#X connect 14 1 9 0;
#X connect 14 2 9 0;
#X connect 14 3 9 0;
#X connect 14 4 10 0;
#X connect 14 5 10 0;
#X connect 14 6 11 0;
#X connect 14 7 12 0;
#X connect 15 0 16 0;
#X connect 16 0 5 0;
#X connect 17 0 15 0;
#X connect 17 1 16 1;
#X connect 18 0 17 0;
#X connect 19 0 15 0;
#X connect 19 1 18 0;
#X restore 724 100 pd division_chooser;
#X obj 560 215 spigot;
#X obj 631 215 spigot;
#X obj 560 100 t b f;
#X obj 887 396 int;
#X msg 372 388 1;
#X msg 505 378 0;
#X obj 887 367 * 0.3;
#X obj 1127 222 / 100;
#X obj 883 334 f;
#X obj 1194 222 loadbang;
#X msg 1191 256 50;
#X obj 1130 193 hsl 128 17 13 90 0 0 empty empty empty -2 -8 0 10 #e4e4e4 #4d4d4d #373737 0 1;
#X obj 936 296 t b f;
#X obj 1127 161 r stutter_length @hv_param 13 90 50;
#X obj 416 206 f;
#X obj 675 322 f;
#X obj 629 156 f;
#X obj 418 427 f;
#X obj 372 453 tgl 25 0 empty empty empty 17 7 0 10 #e4e4e4 #4d4d4d #373737 0 1;
#X obj 278 100 r \$0-bang_counter_start;
#X obj 504 312 mod 1;
#X obj 504 341 select 0;
#X obj 504 278 + 1;
#X obj 887 37 r stutter_interval @hv_param 3 9 6;
#X connect 0 0 38 1;
#X connect 0 0 53 0;
#X connect 0 0 47 0;
#X connect 1 0 43 0;
#X connect 3 0 1 0;
#X connect 4 0 2 0;
#X connect 4 0 3 0;
#X connect 4 0 61 0;
#X connect 5 0 4 0;
#X connect 6 0 0 0;
#X connect 7 0 6 0;
#X connect 8 0 7 0;
#X connect 9 0 4 0;
#X connect 10 0 11 0;
#X connect 11 0 17 1;
#X connect 11 0 16 1;
#X connect 12 0 16 0;
#X connect 13 0 17 0;
#X connect 16 0 24 0;
#X connect 17 0 25 0;
#X connect 18 0 20 0;
#X connect 19 0 30 0;
#X connect 20 0 11 1;
#X connect 21 0 23 0;
#X connect 22 0 28 0;
#X connect 23 0 26 0;
#X connect 24 0 14 0;
#X connect 25 0 15 0;
#X connect 26 0 24 1;
#X connect 26 0 25 1;
#X connect 27 0 23 0;
#X connect 28 0 21 0;
#X connect 29 0 18 0;
#X connect 30 0 18 0;
#X connect 31 0 29 0;
#X connect 32 0 38 0;
#X connect 33 0 34 0;
#X connect 34 0 37 0;
#X connect 35 0 39 1;
#X connect 35 0 40 1;
#X connect 36 0 37 0;
#X connect 37 0 41 0;
#X connect 38 0 40 0;
#X connect 38 1 55 0;
#X connect 39 0 53 0;
#X connect 39 0 47 0;
#X connect 40 0 9 0;
#X connect 41 0 40 0;
#X connect 41 1 35 0;
#X connect 42 0 54 0;
#X connect 43 0 56 0;
#X connect 44 0 56 0;
#X connect 45 0 42 0;
#X connect 46 0 51 0;
#X connect 47 0 45 0;
#X connect 48 0 49 0;
#X connect 49 0 50 0;
#X connect 50 0 46 0;
#X connect 51 0 47 0;
#X connect 51 1 45 1;
#X connect 52 0 50 0;
#X connect 53 0 4 1;
#X connect 54 0 59 1;
#X connect 55 0 39 0;
#X connect 56 0 57 0;
#X connect 57 0 10 0;
#X connect 58 0 9 0;
#X connect 59 0 60 0;
#X connect 60 0 44 0;
#X connect 61 0 59 0;
#X connect 62 0 0 0;
#X restore 83 315 pd stutter;
#X obj 468 749 vsl 17 128 0 127 0 0 empty empty empty 0 -9 0 10 #e4e4e4 #4d4d4d #373737 0 1;
#X obj 497 749 vsl 17 128 0 127 0 0 empty empty empty 0 -9 0 10 #e4e4e4 #4d4d4d #373737 0 1;
#X obj 828 709 snapshot~;
#X obj 828 646 rmstodb~;
#X obj 1146 646 bng 25 250 50 0 empty empty empty 17 7 0 10 #e4e4e4 #4d4d4d #373737;
#X obj 970 711 snapshot~;
#X obj 970 648 rmstodb~;
#X obj 1161 679 metro 20;
#X msg 1180 646 stop;
#X obj 837 681 r \$0-metro;
#X obj 979 683 r \$0-metro;
#X obj 1161 705 s \$0-metro;
#X obj 328 661 *~;
#X obj 441 661 *~;
#X obj 591 285 hsl 128 17 0 1 0 0 empty empty empty -2 -8 0 10 #e4e4e4 #4d4d4d #373737 0 1;
#X obj 589 214 loadbang;
#X obj 636 323 f;
#X obj 636 461 sig~;
#X obj 588 363 * -1;
#X obj 588 392 + 1;
#X obj 78 672 *~;
#X obj 153 679 *~;
#X obj 588 461 sig~;
#X obj 485 527 lop~ 20;
#X obj 564 532 lop~ 20;
#N canvas 0 50 450 300 stereo_switcher 0;
#X floatatom 406 264 5 0 0 0 - - - 12;
#X obj 384 227 mod 128;
#X obj 437 159 r \$0-bang_counter;
#X obj 1011 151 hsl 128 17 3 10 0 0 empty empty empty -2 -8 0 10 #e4e4e4 #4d4d4d #373737 0 1;
#X obj 1191 148 loadbang;
#X msg 386 177 0;
#X obj 321 115 r \$0-bang_counter_start;
#X obj 293 148 bng 25 250 50 0 empty empty empty 17 7 0 10 #e4e4e4 #4d4d4d #373737;
#X obj 79 110 inlet~ audio_l;
#X obj 177 110 inlet~ audio_r;
#X obj 79 860 outlet~ audio_l;
#X obj 185 860 outlet~ audio_r;
#X obj 761 555 hsl 128 17 0 1 0 0 empty empty empty -2 -8 0 10 #e4e4e4 #4d4d4d #373737 0 1;
#X obj 637 559 loadbang;
#X obj 685 643 f;
#X obj 75 790 *~;
#X obj 185 800 *~;
#X obj 685 671 sig~;
#X msg 675 600 0;
#X obj 384 298 / 128;
#X text 45 622 mono panning;
#X obj 79 594 *~;
#X obj 121 594 *~;
#X obj 685 704 lop~ 20;
#N canvas 0 50 450 300 beat_stereo_chooser 0;
#X obj 319 38 loadbang;
#X obj 71 38 inlet fader_in;
#X obj 71 279 outlet beat_divisor;
#X obj 431 114 bng 25 250 50 0 empty empty empty 17 7 0 10 #e4e4e4 #4d4d4d #373737;
#X floatatom 301 165 3 0 9 0 - - - 16;
#X obj 431 344 pow 2;
#X obj 431 308 swap 2;
#X msg 379 196 0;
#X obj 501 246 f;
#X obj 501 275 t f f;
#X msg 409 196 1;
#X msg 439 196 2;
#X msg 469 196 3;
#X msg 499 196 4;
#X msg 529 196 5;
#X msg 559 196 6;
#X msg 589 196 7;
#X msg 619 196 8;
#X msg 649 196 9;
#X msg 319 108 6;
#X obj 218 137 int;
#X obj 431 394 tabwrite stereo_beats;
#X obj 431 67 table stereo_beats 11;
#X obj 219 216 tabread stereo_beats;
#X obj 71 216 int;
#X obj 71 165 pow 2;
#X obj 71 127 swap 2;
#X obj 71 80 int;
#X connect 0 0 19 0;
#X connect 0 0 3 0;
#X connect 1 0 27 0;
#X connect 3 0 7 0;
#X connect 3 0 10 0;
#X connect 3 0 11 0;
#X connect 3 0 12 0;
#X connect 3 0 13 0;
#X connect 3 0 14 0;
#X connect 3 0 15 0;
#X connect 3 0 16 0;
#X connect 3 0 17 0;
#X connect 3 0 18 0;
#X connect 4 0 23 0;
#X connect 5 0 21 0;
#X connect 6 0 5 0;
#X connect 6 1 5 1;
#X connect 7 0 8 0;
#X connect 8 0 9 0;
#X connect 9 0 6 0;
#X connect 9 1 21 1;
#X connect 10 0 8 0;
#X connect 11 0 8 0;
#X connect 12 0 8 0;
#X connect 13 0 8 0;
#X connect 14 0 8 0;
#X connect 15 0 8 0;
#X connect 16 0 8 0;
#X connect 17 0 8 0;
#X connect 18 0 8 0;
#X connect 19 0 23 0;
#X connect 20 0 23 0;
#X connect 24 0 2 0;
#X connect 25 0 24 0;
#X connect 26 0 25 0;
#X connect 26 1 25 1;
#X connect 27 0 26 0;
#X restore 991 209 pd beat_stereo_chooser;
#X obj 726 521 r stereo_switch_mod @hv_param 0 1 0;
#X obj 483 214 f;
#X obj 991 115 r stereo_switch_interval @hv_param 3 10 6;
#X obj 384 370 cos~;
#X obj 384 336 sig~;
#X obj 384 403 pow~ 2;
#X obj 459 444 *~ -1;
#X obj 459 473 +~ 1;
#X msg 1152 148 8;
#X obj 765 144 r \$0-timemod;
#X obj 654 144 loadbang;
#X msg 655 172 0;
#X obj 601 234 f;
#X obj 601 144 tgl 25 0 empty empty empty 17 7 0 10 #e4e4e4 #4d4d4d #373737 0 1;
#N canvas 0 50 450 300 division_chooser 0;
#X obj 53 109 inlet percentage;
#X obj 53 644 outlet bang;
#X obj 140 644 outlet value;
#X obj 53 603 bng 25 250 50 0 empty empty empty 17 7 0 10 #e4e4e4 #4d4d4d #373737;
#X obj 330 119 inlet maximum;
#X obj 53 543 t b f;
#X obj 53 150 * 8;
#X obj 53 183 int;
#X obj 53 212 change;
#X msg 55 288 1;
#X msg 85 288 2;
#X msg 115 288 4;
#X msg 145 288 8;
#X obj 53 331 change;
#X obj 53 250 select 0 1 2 3 4 5 6 7;
#X obj 53 410 f;
#X obj 53 442 /;
#X obj 227 393 t b f;
#X msg 379 227 1;
#X obj 330 191 t f b;
#X connect 0 0 6 0;
#X connect 3 0 1 0;
#X connect 4 0 19 0;
#X connect 5 0 3 0;
#X connect 5 1 2 0;
#X connect 6 0 7 0;
#X connect 7 0 8 0;
#X connect 8 0 14 0;
#X connect 9 0 13 0;
#X connect 10 0 13 0;
#X connect 11 0 13 0;
#X connect 12 0 13 0;
#X connect 13 0 17 0;
#X connect 14 0 9 0;
#X connect 14 1 9 0;
#X connect 14 2 9 0;
#X connect 14 3 9 0;
#X connect 14 4 10 0;
#X connect 14 5 10 0;
#X connect 14 6 11 0;
#X connect 14 7 12 0;
#X connect 15 0 16 0;
#X connect 16 0 5 0;
#X connect 17 0 15 0;
#X connect 17 1 16 1;
#X connect 18 0 17 0;
#X connect 19 0 15 0;
#X connect 19 1 18 0;
#X restore 765 178 pd division_chooser;
#X obj 601 293 spigot;
#X obj 601 178 t b f;
#X obj 670 234 f;
#X obj 384 536 lop~ 10;
#X obj 459 542 lop~ 10;
#X obj 601 115 r stereo_switch_interval_modulation @hv_param 0 1 0 bool;
#X connect 1 0 0 0;
#X connect 1 0 19 0;
#X connect 2 0 1 0;
#X connect 3 0 24 0;
#X connect 4 0 33 0;
#X connect 5 0 1 0;
#X connect 6 0 5 0;
#X connect 7 0 5 0;
#X connect 8 0 21 0;
#X connect 8 0 22 0;
#X connect 9 0 22 0;
#X connect 9 0 21 0;
#X connect 12 0 14 0;
#X connect 13 0 18 0;
#X connect 14 0 17 0;
#X connect 15 0 10 0;
#X connect 16 0 11 0;
#X connect 17 0 23 0;
#X connect 18 0 12 0;
#X connect 19 0 29 0;
#X connect 21 0 15 0;
#X connect 22 0 16 0;
#X connect 23 0 16 1;
#X connect 23 0 15 1;
#X connect 24 0 26 0;
#X connect 24 0 39 1;
#X connect 25 0 14 0;
#X connect 26 0 1 1;
#X connect 26 0 19 1;
#X connect 27 0 24 0;
#X connect 28 0 30 0;
#X connect 29 0 28 0;
#X connect 30 0 31 0;
#X connect 30 0 43 0;
#X connect 31 0 32 0;
#X connect 32 0 44 0;
#X connect 33 0 3 0;
#X connect 34 0 39 0;
#X connect 35 0 36 0;
#X connect 36 0 38 0;
#X connect 37 0 40 1;
#X connect 38 0 41 0;
#X connect 39 1 42 0;
#X connect 40 0 26 0;
#X connect 41 1 37 0;
#X connect 42 0 40 0;
#X connect 43 0 21 1;
#X connect 44 0 22 1;
#X connect 45 0 38 0;
#X restore 283 323 pd stereo_switcher;
#X msg 590 245 0;
#X obj 669 207 r amp_modulation @hv_param 0 1 0;
#X obj 586 431 f;
#N canvas 0 50 450 300 stereostutter 0;
#X floatatom 347 262 5 0 0 0 - - - 12;
#X obj 347 295 select 0;
#X obj 347 227 mod 128;
#X obj 376 147 r \$0-bang_counter;
#X obj 887 146 hsl 128 17 3 9 0 0 empty empty empty -2 -8 0 10 #e4e4e4 #4d4d4d #373737 0 1;
#X msg 1102 146 6;
#X obj 1025 145 loadbang;
#X msg 349 177 0;
#X obj 276 146 bng 25 250 50 0 empty empty empty 17 7 0 10 #e4e4e4 #4d4d4d #373737;
#X obj 75 110 inlet~ audio_l;
#X obj 173 110 inlet~ audio_r;
#X obj 75 860 outlet~ audio_l;
#X obj 181 860 outlet~ audio_r;
#X obj 1222 170 hsl 128 14 0.1 100 1 0 empty empty empty -2 -8 0 10 #e4e4e4 #4d4d4d #373737 0 1;
#X obj 1137 146 loadbang, f 9;
#X obj 1217 203 f, f 5;
#X obj 1140 416 hsl 128 17 0 1 0 0 empty empty empty -2 -8 0 10 #e4e4e4 #4d4d4d #373737 0 1;
#X obj 1286 413 loadbang;
#X obj 1137 447 f;
#X obj 71 790 *~;
#X obj 181 800 *~;
#X obj 1137 485 sig~;
#X msg 1287 441 0;
#N canvas 0 50 450 300 beat_panning_chooser 0;
#X obj 319 38 loadbang;
#X obj 71 38 inlet fader_in;
#X obj 71 279 outlet beat_divisor;
#X obj 431 114 bng 25 250 50 0 empty empty empty 17 7 0 10 #e4e4e4 #4d4d4d #373737;
#X floatatom 307 187 3 0 9 0 - - - 16;
#X obj 431 344 pow 2;
#X obj 431 308 swap 2;
#X msg 379 196 0;
#X obj 501 246 f;
#X obj 501 275 t f f;
#X msg 409 196 1;
#X msg 439 196 2;
#X msg 469 196 3;
#X msg 499 196 4;
#X msg 529 196 5;
#X msg 559 196 6;
#X msg 589 196 7;
#X msg 619 196 8;
#X msg 649 196 9;
#X msg 319 108 6;
#X obj 224 159 int;
#X obj 431 67 table panning_beats 11;
#X obj 431 389 tabwrite panning_beats;
#X obj 225 238 tabread panning_beats;
#X obj 71 230 int;
#X obj 71 173 pow 2;
#X obj 71 137 swap 2;
#X obj 71 90 int;
#X connect 0 0 19 0;
#X connect 0 0 3 0;
#X connect 1 0 27 0;
#X connect 3 0 7 0;
#X connect 3 0 10 0;
#X connect 3 0 11 0;
#X connect 3 0 12 0;
#X connect 3 0 13 0;
#X connect 3 0 14 0;
#X connect 3 0 15 0;
#X connect 3 0 16 0;
#X connect 3 0 17 0;
#X connect 3 0 18 0;
#X connect 4 0 23 0;
#X connect 5 0 22 0;
#X connect 6 0 5 0;
#X connect 6 1 5 1;
#X connect 7 0 8 0;
#X connect 8 0 9 0;
#X connect 9 0 6 0;
#X connect 9 1 22 1;
#X connect 10 0 8 0;
#X connect 11 0 8 0;
#X connect 12 0 8 0;
#X connect 13 0 8 0;
#X connect 14 0 8 0;
#X connect 15 0 8 0;
#X connect 16 0 8 0;
#X connect 17 0 8 0;
#X connect 18 0 8 0;
#X connect 19 0 23 0;
#X connect 20 0 23 0;
#X connect 24 0 2 0;
#X connect 25 0 24 0;
#X connect 26 0 25 0;
#X connect 26 1 25 1;
#X connect 27 0 26 0;
#X restore 884 176 pd beat_panning_chooser;
#X text 45 723 mono panning;
#X obj 347 495 * -1;
#X obj 347 524 + 1;
#X obj 349 596 sig~;
#X obj 299 596 sig~;
#X obj 79 695 *~;
#X obj 121 695 *~;
#X obj 1137 518 lop~ 20;
#X obj 349 625 lop~ 20;
#X obj 272 631 lop~ 20;
#X obj 1219 146 + 0.1, f 6;
#X msg 1141 170 50, f 4;
#X obj 700 144 r \$0-timemod;
#X obj 589 144 loadbang;
#X msg 590 172 0;
#X obj 536 234 f;
#X obj 536 158 tgl 25 0 empty empty empty 17 7 0 10 #e4e4e4 #4d4d4d #373737 0 1;
#N canvas 0 50 450 300 division_chooser 0;
#X obj 53 109 inlet percentage;
#X obj 53 644 outlet bang;
#X obj 140 644 outlet value;
#X obj 53 603 bng 25 250 50 0 empty empty empty 17 7 0 10 #e4e4e4 #4d4d4d #373737;
#X obj 330 119 inlet maximum;
#X obj 53 543 t b f;
#X obj 53 150 * 8;
#X obj 53 183 int;
#X obj 53 212 change;
#X msg 55 288 1;
#X msg 85 288 2;
#X msg 115 288 4;
#X msg 145 288 8;
#X obj 53 331 change;
#X obj 53 250 select 0 1 2 3 4 5 6 7;
#X obj 53 410 f;
#X obj 53 442 /;
#X obj 227 393 t b f;
#X msg 379 227 1;
#X obj 330 191 t f b;
#X connect 0 0 6 0;
#X connect 3 0 1 0;
#X connect 4 0 19 0;
#X connect 5 0 3 0;
#X connect 5 1 2 0;
#X connect 6 0 7 0;
#X connect 7 0 8 0;
#X connect 8 0 14 0;
#X connect 9 0 13 0;
#X connect 10 0 13 0;
#X connect 11 0 13 0;
#X connect 12 0 13 0;
#X connect 13 0 17 0;
#X connect 14 0 9 0;
#X connect 14 1 9 0;
#X connect 14 2 9 0;
#X connect 14 3 9 0;
#X connect 14 4 10 0;
#X connect 14 5 10 0;
#X connect 14 6 11 0;
#X connect 14 7 12 0;
#X connect 15 0 16 0;
#X connect 16 0 5 0;
#X connect 17 0 15 0;
#X connect 17 1 16 1;
#X connect 18 0 17 0;
#X connect 19 0 15 0;
#X connect 19 1 18 0;
#X restore 700 178 pd division_chooser;
#X obj 607 321 spigot;
#X obj 545 321 spigot;
#X obj 524 194 t b f;
#X obj 347 441 f;
#X obj 1044 887 bng 25 50 20 0 empty empty empty 17 7 0 10 #e4e4e4 #4d4d4d #373737;
#X msg 1046 928 1;
#X msg 1179 918 0;
#X obj 1092 967 f;
#X obj 1046 993 tgl 25 0 empty empty empty 17 7 0 10 #e4e4e4 #4d4d4d #373737 0 1;
#X obj 1178 852 mod 1;
#X obj 1178 881 select 0;
#X obj 1178 818 + 1;
#X obj 421 186 f;
#X obj 347 399 tgl 25 0 empty empty empty 17 7 0 10 #e4e4e4 #4d4d4d #373737 0 1;
#X obj 284 115 r \$0-bang_counter_start;
#X obj 306 559 f;
#X obj 347 559 f;
#X obj 740 230 f;
#X obj 884 115 r stereopan_interval @hv_param 0 9 6;
#X obj 1137 115 r stereopan_hardness @hv_param 0 100 50, f 36;
#X obj 1137 387 r stereopan_mod @hv_param 0 1 0;
#X obj 536 115 r stereopan_interval_modulation @hv_param 0 1 0 bool;
#X connect 0 0 1 0;
#X connect 1 0 55 0;
#X connect 2 0 0 0;
#X connect 3 0 2 0;
#X connect 4 0 23 0;
#X connect 5 0 4 0;
#X connect 6 0 5 0;
#X connect 7 0 2 0;
#X connect 8 0 7 0;
#X connect 9 0 29 0;
#X connect 10 0 30 0;
#X connect 13 0 15 0;
#X connect 14 0 35 0;
#X connect 15 0 33 1;
#X connect 15 0 32 1;
#X connect 16 0 18 0;
#X connect 17 0 22 0;
#X connect 18 0 21 0;
#X connect 19 0 11 0;
#X connect 20 0 12 0;
#X connect 21 0 31 0;
#X connect 22 0 18 0;
#X connect 23 0 41 1;
#X connect 23 0 54 0;
#X connect 25 0 26 0;
#X connect 26 0 58 0;
#X connect 27 0 32 0;
#X connect 28 0 33 0;
#X connect 29 0 19 0;
#X connect 30 0 20 0;
#X connect 31 0 20 1;
#X connect 31 0 19 1;
#X connect 32 0 30 1;
#X connect 33 0 29 1;
#X connect 34 0 13 0;
#X connect 35 0 13 0;
#X connect 36 0 41 0;
#X connect 37 0 38 0;
#X connect 38 0 39 0;
#X connect 39 0 42 1;
#X connect 39 0 43 1;
#X connect 40 0 44 0;
#X connect 41 0 43 0;
#X connect 41 1 59 0;
#X connect 42 0 54 0;
#X connect 44 0 43 0;
#X connect 44 1 39 0;
#X connect 45 0 25 0;
#X connect 45 0 57 0;
#X connect 46 0 47 0;
#X connect 47 0 49 0;
#X connect 48 0 49 0;
#X connect 49 0 50 0;
#X connect 51 0 52 0;
#X connect 52 0 48 0;
#X connect 53 0 51 0;
#X connect 54 0 2 1;
#X connect 55 0 45 0;
#X connect 56 0 7 0;
#X connect 57 0 28 0;
#X connect 58 0 27 0;
#X connect 59 0 42 0;
#X connect 60 0 23 0;
#X connect 61 0 34 0;
#X connect 62 0 18 0;
#X connect 63 0 40 0;
#X restore 173 315 pd stereostutter;
#X connect 0 0 4 0;
#X connect 0 0 34 0;
#X connect 0 0 17 0;
#X connect 0 0 30 0;
#X connect 1 0 4 1;
#X connect 1 0 34 1;
#X connect 1 0 18 0;
#X connect 1 0 30 1;
#X connect 4 0 25 0;
#X connect 4 1 26 0;
#X connect 7 0 5 0;
#X connect 8 0 7 0;
#X connect 9 0 12 0;
#X connect 10 0 6 0;
#X connect 11 0 10 0;
#X connect 12 0 16 0;
#X connect 13 0 12 0;
#X connect 14 0 7 0;
#X connect 15 0 10 0;
#X connect 17 0 2 0;
#X connect 18 0 3 0;
#X connect 19 0 21 0;
#X connect 20 0 31 0;
#X connect 21 0 22 0;
#X connect 21 0 23 0;
#X connect 22 0 28 0;
#X connect 23 0 24 0;
#X connect 24 0 33 0;
#X connect 25 0 2 0;
#X connect 26 0 3 0;
#X connect 27 0 29 0;
#X connect 28 0 25 1;
#X connect 28 0 26 1;
#X connect 29 0 18 1;
#X connect 29 0 17 1;
#X connect 30 0 25 0;
#X connect 30 1 26 0;
#X connect 31 0 19 0;
#X connect 32 0 21 0;
#X connect 33 0 27 0;
#X connect 34 0 25 0;
#X connect 34 1 26 0;
#X restore 1068 505 pd fx_chain_02;
#X text 910 567 filters \, phaser \, flanger;
#X text 857 504 amp modulation \, stutter \, stereo;
#N canvas 0 50 450 300 fx_chain_03 0;
#X restore 1083 662 pd fx_chain_03;
#X text 1017 661 delays;
#N canvas 0 50 450 300 fx_chain_04 0;
#X obj 59 86 inlet~ audio_l;
#X obj 157 86 inlet~ audio_r;
#X obj 59 915 outlet~ audio_l;
#X obj 165 915 outlet~ audio_r;
#X obj 59 262 hv.reverb~;
#X obj 157 262 hv.reverb~;
#X floatatom 601 582 5 0 0 0 - - - 0;
#X msg 610 627 feedback \$1;
#X floatatom 697 608 9 0 0 1 dB - - 16;
#X msg 697 627 dry-gain \$1;
#X floatatom 785 608 9 0 0 1 dB - - 12;
#X msg 785 627 wet-gain \$1;
#X floatatom 877 608 10 0 0 1 Hz - - 0;
#X floatatom 965 608 10 0 0 1 Hz - - 0;
#X msg 877 627 lowcut \$1;
#X msg 965 627 highcut \$1;
#X obj 609 438 vsl 15 128 0 100 0 0 empty empty empty 0 -9 0 10 #fcfcfc #000000 #000000 0 1;
#X obj 697 472 vsl 15 128 0 100 0 0 empty empty empty 0 -9 0 10 #fcfcfc #000000 #000000 0 1;
#X obj 790 472 vsl 15 128 0 100 0 0 empty empty empty 0 -9 0 10 #fcfcfc #000000 #000000 0 1;
#X obj 877 472 vsl 15 128 0 25000 0 0 empty empty empty 0 -9 0 10 #fcfcfc #000000 #000000 0 1;
#X obj 965 472 vsl 15 128 0 25000 0 0 empty empty empty 0 -9 0 10 #fcfcfc #000000 #000000 0 1;
#X floatatom 1050 608 10 0 0 1 Hz - - 0;
#X obj 1050 472 vsl 15 128 0 25000 0 0 empty empty empty 0 -9 0 10 #fcfcfc #000000 #000000 0 1;
#X floatatom 1145 608 5 0 0 0 - - - 0;
#X obj 1154 472 vsl 15 128 0 100 0 0 empty empty empty 0 -9 0 10 #fcfcfc #000000 #000000 0 1;
#X msg 1145 627 damp \$1;
#X msg 1050 627 crossfreq \$1;
#X obj 909 291 loadbang;
#X msg 642 357 90;
#X msg 1082 356 3000;
#X msg 1177 355 60;
#X msg 909 356 5;
#X msg 997 356 24000;
#X floatatom 1215 608 10 0 0 0 - - - 12;
#X obj 1215 472 vsl 15 128 0 2800 0 0 empty empty empty 0 -9 0 10 #fcfcfc #000000 #000000 0 1;
#X msg 1247 355 0;
#X msg 1215 627 predelay_ms \$1;
#X obj 610 703 s \$0-reverb-param;
#X obj 230 204 r \$0-reverb-param;
#X obj 59 701 +~;
#X obj 101 701 +~;
#X obj 577 148 f;
#X obj 577 177 / 100;
#X obj 577 206 * -1;
#X obj 577 235 + 1;
#X obj 577 264 sig~;
#X obj 495 264 sig~;
#X obj 495 293 lop~ 100;
#X obj 573 95 hsl 128 17 0 100 0 0 empty empty empty -2 -8 0 10 #e4e4e4 #4d4d4d #373737 0 1;
#X obj 570 26 loadbang;
#X msg 570 64 0;
#X obj 603 407 f;
#X obj 697 407 f;
#X obj 770 407 f;
#X obj 864 407 f;
#X obj 955 407 f;
#X obj 1030 407 f;
#X obj 1131 407 f;
#X obj 1199 407 f;
#X obj 1384 364 r \$0-timemod;
#X obj 1384 438 mult2values;
#X obj 1384 471 mult2values;
#X obj 1523 407 f;
#X obj 1523 486 * -1;
#X obj 1523 515 + 1;
#X obj 1460 546 mult2values;
#X obj 1400 588 add2values;
#X obj 1420 296 hsl 128 17 0 100 0 0 empty empty empty -2 -8 0 10 #e4e4e4 #4d4d4d #373737 0 1;
#X obj 1523 448 / 100;
#X obj 577 293 lop~ 100;
#X obj 56 774 *~;
#X obj 114 774 *~;
#X obj 199 774 *~;
#X obj 257 774 *~;
#X obj 506 210 * 2;
#X obj 1523 364 r reverb_feedback_mod @hv_param 0 100 0;
#X obj 577 119 r reverb_mod @hv_param 0 100 0;
#X obj 1305 6 r reverb_feedback @hv_param 0 100 0;
#X obj 1313 119 r reverb_lowcut @hv_param 5 25000 5;
#X obj 1311 143 r reverb_highcut @hv_param 5 25000 24000;
#X obj 1316 172 r reverb_crossfreq @hv_param 0 25000 3000;
#X obj 1319 203 r reverb_damp @hv_param 0 100 60;
#X obj 1318 229 r reverb_predelay @hv_param 0 2800 0;
#X msg 817 356 100;
#X msg 732 355 0;
#X connect 0 0 4 0;
#X connect 0 0 72 0;
#X connect 1 0 5 0;
#X connect 1 0 73 0;
#X connect 4 0 39 0;
#X connect 4 1 40 0;
#X connect 5 0 39 1;
#X connect 5 1 40 1;
#X connect 6 0 7 0;
#X connect 7 0 37 0;
#X connect 8 0 9 0;
#X connect 9 0 37 0;
#X connect 10 0 11 0;
#X connect 11 0 37 0;
#X connect 12 0 14 0;
#X connect 13 0 15 0;
#X connect 14 0 37 0;
#X connect 15 0 37 0;
#X connect 16 0 61 1;
#X connect 16 0 65 0;
#X connect 17 0 8 0;
#X connect 18 0 10 0;
#X connect 19 0 12 0;
#X connect 20 0 13 0;
#X connect 21 0 26 0;
#X connect 22 0 21 0;
#X connect 23 0 25 0;
#X connect 24 0 23 0;
#X connect 25 0 37 0;
#X connect 26 0 37 0;
#X connect 27 0 84 0;
#X connect 27 0 30 0;
#X connect 27 0 29 0;
#X connect 27 0 32 0;
#X connect 27 0 31 0;
#X connect 27 0 28 0;
#X connect 27 0 35 0;
#X connect 27 0 83 0;
#X connect 28 0 51 0;
#X connect 29 0 56 0;
#X connect 30 0 57 0;
#X connect 31 0 54 0;
#X connect 32 0 55 0;
#X connect 33 0 36 0;
#X connect 34 0 33 0;
#X connect 35 0 58 0;
#X connect 36 0 37 0;
#X connect 38 0 5 1;
#X connect 38 0 4 1;
#X connect 39 0 70 0;
#X connect 40 0 71 0;
#X connect 41 0 42 0;
#X connect 42 0 43 0;
#X connect 42 0 74 0;
#X connect 43 0 44 0;
#X connect 44 0 45 0;
#X connect 45 0 69 0;
#X connect 45 0 73 1;
#X connect 45 0 72 1;
#X connect 46 0 47 0;
#X connect 46 0 71 1;
#X connect 46 0 70 1;
#X connect 48 0 41 0;
#X connect 49 0 50 0;
#X connect 50 0 48 0;
#X connect 50 0 60 1;
#X connect 51 0 16 0;
#X connect 52 0 17 0;
#X connect 53 0 18 0;
#X connect 54 0 19 0;
#X connect 55 0 20 0;
#X connect 56 0 22 0;
#X connect 57 0 24 0;
#X connect 58 0 34 0;
#X connect 59 0 60 0;
#X connect 60 0 61 0;
#X connect 61 0 66 0;
#X connect 62 0 68 0;
#X connect 63 0 64 0;
#X connect 64 0 65 1;
#X connect 65 0 66 1;
#X connect 66 0 7 0;
#X connect 67 0 62 0;
#X connect 68 0 63 0;
#X connect 68 0 60 1;
#X connect 70 0 2 0;
#X connect 71 0 3 0;
#X connect 72 0 2 0;
#X connect 73 0 3 0;
#X connect 74 0 46 0;
#X connect 75 0 62 0;
#X connect 76 0 41 0;
#X connect 77 0 51 0;
#X connect 78 0 54 0;
#X connect 79 0 55 0;
#X connect 80 0 56 0;
#X connect 81 0 57 0;
#X connect 82 0 58 0;
#X connect 83 0 53 0;
#X connect 84 0 52 0;
#X restore 1083 725 pd fx_chain_04;
#X text 1017 724 reverb;
#X obj 518 318 bng 25 250 50 0 empty empty empty 17 7 0 10 #e4e4e4 #4d4d4d #373737;
#X obj 820 200 select 1;
#X obj 725 796 s buildup_position @hv_param;
#X obj 506 448 s \$0-timemod;
#X obj 387 448 s~ \$0-timemod~;
#N canvas 0 50 450 300 tabletest 0;
#X obj 142 65 loadbang;
#X obj 71 452 tabread test;
#X msg 80 373 3;
#X obj 125 130 bng 25 250 50 0 empty empty empty 17 7 0 10 #e4e4e4 #4d4d4d #373737;
#X obj 123 202 t b b b b;
#X msg 391 365 _ \; test resize 5 \; test 0 7 4 5 2 8;
#X obj 391 437 table test 5;
#X connect 0 0 3 0;
#X connect 2 0 1 0;
#X connect 3 0 4 0;
#X connect 4 0 2 0;
#X connect 4 1 5 0;
#X restore 535 845 pd tabletest;
#X obj 639 448 s \$0-timemod_start;
#X msg 535 99 1;
#X msg 609 105 0;
#X msg 744 153 1;
#X msg 704 153 16;
#X obj 390 28 r beat_repeat @hv_param 0 9 6;
#X msg 337 93 6;
#X msg 237 93 130;
#X obj 886 28 r buildup_style @hv_param 0 3 1;
#X obj 140 28 r bpm_custom @hv_param 40 480 130;
#X obj 16 128 r looper_on_off @hv_param 0 1 1 bool;
#X connect 1 0 15 0;
#X connect 2 0 35 0;
#X connect 2 0 64 0;
#X connect 2 0 7 1;
#X connect 2 0 20 0;
#X connect 3 0 16 4;
#X connect 3 0 21 2;
#X connect 4 0 8 0;
#X connect 4 0 16 0;
#X connect 4 1 9 0;
#X connect 4 1 16 1;
#X connect 5 0 88 0;
#X connect 5 0 89 0;
#X connect 6 0 7 0;
#X connect 7 0 19 0;
#X connect 8 0 26 0;
#X connect 9 0 27 0;
#X connect 10 0 69 0;
#X connect 11 0 69 1;
#X connect 12 0 16 3;
#X connect 12 0 77 0;
#X connect 13 0 2 0;
#X connect 14 0 16 6;
#X connect 15 0 16 4;
#X connect 15 0 21 2;
#X connect 16 0 10 0;
#X connect 16 1 11 0;
#X connect 17 0 16 5;
#X connect 18 0 10 1;
#X connect 18 0 11 1;
#X connect 19 0 8 1;
#X connect 19 0 9 1;
#X connect 20 0 12 0;
#X connect 21 0 41 0;
#X connect 21 0 80 0;
#X connect 21 1 78 0;
#X connect 21 1 79 0;
#X connect 21 2 82 0;
#X connect 22 0 21 1;
#X connect 23 0 21 3;
#X connect 24 0 21 4;
#X connect 25 0 21 5;
#X connect 26 0 0 0;
#X connect 27 0 0 1;
#X connect 28 0 26 1;
#X connect 28 0 27 1;
#X connect 30 0 16 2;
#X connect 31 0 34 0;
#X connect 34 0 32 1;
#X connect 34 0 33 1;
#X connect 36 0 31 0;
#X connect 37 0 32 0;
#X connect 38 0 33 0;
#X connect 41 1 43 0;
#X connect 42 0 43 1;
#X connect 43 0 40 0;
#X connect 43 0 39 0;
#X connect 45 0 21 3;
#X connect 46 0 47 0;
#X connect 47 0 28 0;
#X connect 48 0 25 0;
#X connect 49 0 48 0;
#X connect 50 0 30 0;
#X connect 51 0 50 0;
#X connect 52 0 17 0;
#X connect 53 0 22 0;
#X connect 54 0 74 0;
#X connect 54 1 74 1;
#X connect 55 0 52 0;
#X connect 56 0 53 0;
#X connect 57 0 63 0;
#X connect 58 0 59 0;
#X connect 59 0 57 0;
#X connect 60 0 57 0;
#X connect 61 0 83 0;
#X connect 61 0 86 0;
#X connect 61 0 85 0;
#X connect 61 0 84 0;
#X connect 62 0 21 4;
#X connect 64 0 18 0;
#X connect 65 0 66 0;
#X connect 66 0 2 0;
#X connect 69 0 54 0;
#X connect 69 1 54 1;
#X connect 74 0 0 0;
#X connect 74 1 0 1;
#X connect 76 0 21 0;
#X connect 77 0 76 0;
#X connect 83 0 22 0;
#X connect 84 0 52 0;
#X connect 85 0 21 4;
#X connect 86 0 21 3;
#X connect 87 0 14 0;
#X connect 88 0 14 0;
#X connect 89 0 16 4;
#X connect 89 0 21 2;
#X connect 90 0 62 0;
#X connect 91 0 3 0;
#X connect 92 0 16 2;
