#N canvas 827 239 527 327 12;
#X obj 274 204 inlet amount;
#X text 289 175 0..1;
#X obj 538 206 inlet max value;
#X obj 424 206 inlet min value;
#X obj 666 206 inlet exponent;
#X obj 666 366 f;
#X obj 506 366 f;
#X obj 424 285 f;
#X obj 461 252 * -1;
#X obj 506 285 add2values;
#X obj 274 500 pow;
#X obj 274 529 * 1;
#X obj 274 558 +;
#X obj 274 587 outlet value;
#X obj 793 206 loadbang;
#X obj 892 258 f \$3;
#X obj 850 258 f \$2;
#X obj 808 258 f \$1;
#X connect 0 0 10 0;
#X connect 2 0 9 1;
#X connect 3 0 7 0;
#X connect 3 0 8 0;
#X connect 4 0 5 0;
#X connect 5 0 10 1;
#X connect 6 0 11 1;
#X connect 7 0 12 1;
#X connect 8 0 9 0;
#X connect 9 0 6 0;
#X connect 10 0 11 0;
#X connect 11 0 12 0;
#X connect 12 0 13 0;
#X connect 14 0 15 0;
#X connect 14 0 16 0;
#X connect 14 0 17 0;
#X connect 15 0 5 0;
#X connect 16 0 9 1;
#X connect 17 0 7 0;
#X connect 17 0 8 0;
